# MagicaVoxel @ Ephtracy

# group
o LOD0

# material
mtllib Masoleum2-0-LOD0.mtl
usemtl palette

# normals
vn -1 0 0
vn 1 0 0
vn 0 -1 0
vn 0 1 0
vn 0 0 -1
vn 0 0 1

# texcoords
vt 0.0761719 0.5
vt 0.0839844 0.5
vt 0.130859 0.5
vt 0.228516 0.5

# verts
v -4 0 -5
v -4 0.6 -5
v -4 0 5
v -4 0.6 5
v -3.6 0.6 -4.6
v -3.6 0.9 -4.6
v -3.6 6.2 -4
v -3.6 6.4 -4
v -3.6 6.2 4
v -3.6 6.4 4
v -3.6 0.6 4.6
v -3.6 0.9 4.6
v -3.3 0.9 -4
v -3.3 5.9 -4
v -3.3 6.4 -4
v -3.3 6.7 -4
v -3.3 0.9 4
v -3.3 5.9 4
v -3.3 6.4 4
v -3.3 6.7 4
v -3.2 5.9 -3.7
v -3.2 6.2 -3.7
v -3.2 5.9 3.7
v -3.2 6.2 3.7
v -3 1.2 3.9
v -3 5.7 3.9
v -3 1.2 4
v -3 5.7 4
v -2 6.8 3.5
v -2 6.9 3.5
v -2 6.8 3.6
v -2 6.9 3.6
v -2 1.1 3.9
v -2 5.8 3.9
v -2 1.1 4
v -2 5.8 4
v -1.9 6.7 -4
v -1.9 6.9 -4
v -1.9 6.8 3.5
v -1.9 6.9 3.5
v -1.9 6.8 3.6
v -1.9 6.9 3.6
v -1.9 6.7 4
v -1.9 6.9 4
v -1.8 0.9 2.1
v -1.8 5.9 2.1
v -1.8 0.9 3.6
v -1.8 5.9 3.6
v 0.1 0.9 3
v 0.1 1.3 3
v 0.1 3.1 3
v 0.1 3.2 3
v 0.1 4.9 3
v 0.1 5.2 3
v 0.1 0.9 3.1
v 0.1 1.3 3.1
v 0.1 3.1 3.1
v 0.1 3.2 3.1
v 0.1 4.9 3.1
v 0.1 5.2 3.1
v 0.9 0.9 3.1
v 0.9 5.2 3.1
v 0.9 0.9 3.2
v 0.9 5.2 3.2
v 1.1 0.9 3.2
v 1.1 5.9 3.2
v 1.1 0.9 3.6
v 1.1 5.9 3.6
v 1.9 0.9 -4
v 1.9 5.9 -4
v 1.9 0.9 -3.9
v 1.9 5.9 -3.9
v 1.9 0.9 2.1
v 1.9 5.9 2.1
v 1.9 5.9 3.6
v 1.9 5.9 3.7
v 1.9 0.9 4
v 1.9 5.9 4
v 2.1 1.2 3.9
v 2.1 5.7 3.9
v 2.1 1.2 4
v 2.1 5.7 4
v 3.1 1.1 3.9
v 3.1 5.8 3.9
v 3.1 1.1 4
v 3.1 5.8 4
v -3.1 1.1 3.9
v -3.1 5.8 3.9
v -3.1 1.1 4
v -3.1 5.8 4
v -2.1 1.2 3.9
v -2.1 5.7 3.9
v -2.1 1.2 4
v -2.1 5.7 4
v -1.9 0.9 -4
v -1.9 5.9 -4
v -1.9 0.9 -3.9
v -1.9 5.9 -3.9
v -1.9 0.9 2.1
v -1.9 5.9 2.1
v -1.9 5.9 3.6
v -1.9 5.9 3.7
v -1.9 0.9 4
v -1.9 5.9 4
v -1.1 0.9 3.2
v -1.1 5.9 3.2
v -1.1 0.9 3.6
v -1.1 5.9 3.6
v -0.9 0.9 3.1
v -0.9 5.2 3.1
v -0.9 0.9 3.2
v -0.9 5.2 3.2
v -0.0999999 0.9 3
v -0.0999999 1.3 3
v -0.0999999 3.1 3
v -0.0999999 3.2 3
v -0.0999999 4.9 3
v -0.0999999 5.2 3
v -0.0999999 0.9 3.1
v -0.0999999 1.3 3.1
v -0.0999999 3.1 3.1
v -0.0999999 3.2 3.1
v -0.0999999 4.9 3.1
v -0.0999999 5.2 3.1
v 1.8 0.9 2.1
v 1.8 5.9 2.1
v 1.8 0.9 3.6
v 1.8 5.9 3.6
v 1.9 6.7 -4
v 1.9 6.9 -4
v 1.9 6.7 4
v 1.9 6.9 4
v 2 1.1 3.9
v 2 5.8 3.9
v 2 1.1 4
v 2 5.8 4
v 3 1.2 3.9
v 3 5.7 3.9
v 3 1.2 4
v 3 5.7 4
v 3.2 5.9 -3.7
v 3.2 6.2 -3.7
v 3.2 5.9 -3.6
v 3.2 6.2 -3.6
v 3.2 5.9 3.6
v 3.2 6.2 3.6
v 3.2 5.9 3.7
v 3.2 6.2 3.7
v 3.3 0.9 -4
v 3.3 5.9 -4
v 3.3 6.4 -4
v 3.3 6.7 -4
v 3.3 0.9 4
v 3.3 5.9 4
v 3.3 6.4 4
v 3.3 6.7 4
v 3.6 0.6 -4.6
v 3.6 0.9 -4.6
v 3.6 6.2 -4
v 3.6 6.4 -4
v 3.6 6.2 4
v 3.6 6.4 4
v 3.6 0.6 4.6
v 3.6 0.9 4.6
v 4 0 -5
v 4 0.6 -5
v 4 0 5
v 4 0.6 5
v -4 0 -5
v -4 0 5
v 4 0 -5
v 4 0 5
v -3 1.2 3.9
v -3 1.2 4
v -2.1 1.2 3.9
v -2.1 1.2 4
v 2.1 1.2 3.9
v 2.1 1.2 4
v 3 1.2 3.9
v 3 1.2 4
v -0.9 5.2 3.1
v -0.9 5.2 3.2
v -0.0999999 5.2 3
v -0.0999999 5.2 3.1
v 0.1 5.2 3
v 0.1 5.2 3.1
v 0.9 5.2 3.1
v 0.9 5.2 3.2
v -3.1 5.8 3.9
v -3.1 5.8 4
v -2 5.8 3.9
v -2 5.8 4
v 2 5.8 3.9
v 2 5.8 4
v 3.1 5.8 3.9
v 3.1 5.8 4
v -1.9 5.9 2.1
v -1.9 5.9 3.6
v -1.9 5.9 3.7
v -1.8 5.9 2.1
v -1.8 5.9 3.6
v -1.1 5.9 3.2
v -1.1 5.9 3.6
v 1.1 5.9 3.2
v 1.1 5.9 3.6
v 1.8 5.9 2.1
v 1.8 5.9 3.6
v 1.9 5.9 2.1
v 1.9 5.9 3.6
v 1.9 5.9 3.7
v -3.6 6.2 -4
v -3.6 6.2 4
v -3.2 6.2 -3.7
v -3.2 6.2 3.7
v 3.2 6.2 -3.7
v 3.2 6.2 -3.6
v 3.2 6.2 3.6
v 3.2 6.2 3.7
v 3.5 6.2 -4
v 3.5 6.2 4
v 3.6 6.2 -4
v 3.6 6.2 4
v -2 6.8 3.5
v -2 6.8 3.6
v -1.9 6.8 3.5
v -1.9 6.8 3.6
v -4 0.6 -5
v -4 0.6 5
v -3.6 0.6 -4.6
v -3.6 0.6 4.6
v 3.6 0.6 -4.6
v 3.6 0.6 4.6
v 4 0.6 -5
v 4 0.6 5
v -3.6 0.9 -4.6
v -3.6 0.9 4.6
v -3.3 0.9 -4
v -3.3 0.9 4
v -1.9 0.9 -4
v -1.9 0.9 -3.9
v -1.9 0.9 2.1
v -1.9 0.9 4
v -1.8 0.9 2.1
v -1.8 0.9 3.6
v -1.1 0.9 3.2
v -1.1 0.9 3.6
v -0.9 0.9 3.1
v -0.9 0.9 3.2
v -0.0999999 0.9 3
v -0.0999999 0.9 3.1
v 0.1 0.9 3
v 0.1 0.9 3.1
v 0.9 0.9 3.1
v 0.9 0.9 3.2
v 1.1 0.9 3.2
v 1.1 0.9 3.6
v 1.8 0.9 2.1
v 1.8 0.9 3.6
v 1.9 0.9 -4
v 1.9 0.9 -3.9
v 1.9 0.9 2.1
v 1.9 0.9 4
v 3.3 0.9 -4
v 3.3 0.9 4
v 3.6 0.9 -4.6
v 3.6 0.9 4.6
v -3.1 1.1 3.9
v -3.1 1.1 4
v -2 1.1 3.9
v -2 1.1 4
v 2 1.1 3.9
v 2 1.1 4
v 3.1 1.1 3.9
v 3.1 1.1 4
v -3 5.7 3.9
v -3 5.7 4
v -2.1 5.7 3.9
v -2.1 5.7 4
v 2.1 5.7 3.9
v 2.1 5.7 4
v 3 5.7 3.9
v 3 5.7 4
v -3.3 5.9 -4
v -3.3 5.9 4
v -3.2 5.9 -3.7
v -3.2 5.9 3.7
v -1.9 5.9 -4
v -1.9 5.9 -3.9
v -1.9 5.9 3.7
v -1.9 5.9 4
v 1.9 5.9 -4
v 1.9 5.9 -3.9
v 1.9 5.9 3.7
v 1.9 5.9 4
v 3.2 5.9 -3.7
v 3.2 5.9 -3.6
v 3.2 5.9 3.6
v 3.2 5.9 3.7
v 3.3 5.9 -4
v 3.3 5.9 4
v -3.6 6.4 -4
v -3.6 6.4 4
v -3.3 6.4 -4
v -3.3 6.4 4
v 3.3 6.4 -4
v 3.3 6.4 4
v 3.5 6.4 -4
v 3.5 6.4 4
v 3.6 6.4 -4
v 3.6 6.4 4
v -3.3 6.7 -4
v -3.3 6.7 4
v -1.9 6.7 -4
v -1.9 6.7 4
v 1.9 6.7 -4
v 1.9 6.7 4
v 3.3 6.7 -4
v 3.3 6.7 4
v -2 6.9 3.5
v -2 6.9 3.6
v -1.9 6.9 -4
v -1.9 6.9 3.5
v -1.9 6.9 3.6
v -1.9 6.9 4
v 1.9 6.9 -4
v 1.9 6.9 4
v -4 0 -5
v 4 0 -5
v -4 0.6 -5
v 4 0.6 -5
v -3.6 0.6 -4.6
v 3.6 0.6 -4.6
v -3.6 0.9 -4.6
v 3.6 0.9 -4.6
v -3.3 0.9 -4
v -1.9 0.9 -4
v 1.9 0.9 -4
v 3.3 0.9 -4
v -3.3 5.9 -4
v -1.9 5.9 -4
v 1.9 5.9 -4
v 3.3 5.9 -4
v -3.6 6.2 -4
v 3.5 6.2 -4
v 3.6 6.2 -4
v -3.6 6.4 -4
v -3.3 6.4 -4
v 3.3 6.4 -4
v 3.5 6.4 -4
v 3.6 6.4 -4
v -3.3 6.7 -4
v -1.9 6.7 -4
v 1.9 6.7 -4
v 3.3 6.7 -4
v -1.9 6.9 -4
v 1.9 6.9 -4
v -1.9 0.9 -3.9
v 1.9 0.9 -3.9
v -1.9 5.9 -3.9
v 1.9 5.9 -3.9
v -3.2 5.9 -3.7
v 3.2 5.9 -3.7
v -3.2 6.2 -3.7
v 3.2 6.2 -3.7
v -2 6.8 3.5
v -1.9 6.8 3.5
v -2 6.9 3.5
v -1.9 6.9 3.5
v -1.9 0.9 2.1
v -1.8 0.9 2.1
v 1.8 0.9 2.1
v 1.9 0.9 2.1
v -1.9 5.9 2.1
v -1.8 5.9 2.1
v 1.8 5.9 2.1
v 1.9 5.9 2.1
v -0.0999999 0.9 3
v 0.1 0.9 3
v -0.0999999 1.3 3
v 0.1 1.3 3
v -0.0999999 3.1 3
v 0.1 3.1 3
v -0.0999999 3.2 3
v 0.1 3.2 3
v -0.0999999 4.9 3
v 0.1 4.9 3
v -0.0999999 5.2 3
v 0.1 5.2 3
v -0.9 0.9 3.1
v -0.0999999 0.9 3.1
v 0.1 0.9 3.1
v 0.9 0.9 3.1
v -0.7 1.3 3.1
v -0.4 1.3 3.1
v -0.3 1.3 3.1
v -0.0999999 1.3 3.1
v 0.1 1.3 3.1
v 0.3 1.3 3.1
v 0.4 1.3 3.1
v 0.7 1.3 3.1
v -0.7 3.1 3.1
v -0.4 3.1 3.1
v -0.3 3.1 3.1
v -0.0999999 3.1 3.1
v 0.1 3.1 3.1
v 0.3 3.1 3.1
v 0.4 3.1 3.1
v 0.7 3.1 3.1
v -0.7 3.2 3.1
v -0.4 3.2 3.1
v -0.3 3.2 3.1
v -0.0999999 3.2 3.1
v 0.1 3.2 3.1
v 0.3 3.2 3.1
v 0.4 3.2 3.1
v 0.7 3.2 3.1
v -0.7 4.9 3.1
v -0.4 4.9 3.1
v -0.3 4.9 3.1
v -0.0999999 4.9 3.1
v 0.1 4.9 3.1
v 0.3 4.9 3.1
v 0.4 4.9 3.1
v 0.7 4.9 3.1
v -0.9 5.2 3.1
v -0.0999999 5.2 3.1
v 0.1 5.2 3.1
v 0.9 5.2 3.1
v -1.1 0.9 3.2
v -0.9 0.9 3.2
v 0.9 0.9 3.2
v 1.1 0.9 3.2
v -0.9 5.2 3.2
v 0.9 5.2 3.2
v -1.1 5.9 3.2
v 1.1 5.9 3.2
v -1.8 0.9 3.6
v -1.1 0.9 3.6
v 1.1 0.9 3.6
v 1.8 0.9 3.6
v -1.8 5.9 3.6
v -1.1 5.9 3.6
v 1.1 5.9 3.6
v 1.8 5.9 3.6
v -2 6.8 3.6
v -1.9 6.8 3.6
v -2 6.9 3.6
v -1.9 6.9 3.6
v -3.2 5.9 3.7
v -1.9 5.9 3.7
v 1.9 5.9 3.7
v 3.2 5.9 3.7
v -3.2 6.2 3.7
v 3.2 6.2 3.7
v -3.1 1.1 3.9
v -2 1.1 3.9
v 2 1.1 3.9
v 3.1 1.1 3.9
v -3 1.2 3.9
v -2.1 1.2 3.9
v 2.1 1.2 3.9
v 3 1.2 3.9
v -3 5.7 3.9
v -2.1 5.7 3.9
v 2.1 5.7 3.9
v 3 5.7 3.9
v -3.1 5.8 3.9
v -2 5.8 3.9
v 2 5.8 3.9
v 3.1 5.8 3.9
v -3.3 0.9 4
v -1.9 0.9 4
v 1.9 0.9 4
v 3.3 0.9 4
v -3.1 1.1 4
v -2 1.1 4
v 2 1.1 4
v 3.1 1.1 4
v -3 1.2 4
v -2.1 1.2 4
v 2.1 1.2 4
v 3 1.2 4
v -3 5.7 4
v -2.1 5.7 4
v 2.1 5.7 4
v 3 5.7 4
v -3.1 5.8 4
v -2 5.8 4
v 2 5.8 4
v 3.1 5.8 4
v -3.3 5.9 4
v -1.9 5.9 4
v 1.9 5.9 4
v 3.3 5.9 4
v -3.6 6.2 4
v 3.5 6.2 4
v 3.6 6.2 4
v -3.6 6.4 4
v -3.3 6.4 4
v 3.3 6.4 4
v 3.5 6.4 4
v 3.6 6.4 4
v -3.3 6.7 4
v -1.9 6.7 4
v 1.9 6.7 4
v 3.3 6.7 4
v -1.9 6.9 4
v 1.9 6.9 4
v -3.6 0.6 4.6
v 3.6 0.6 4.6
v -3.6 0.9 4.6
v 3.6 0.9 4.6
v -4 0 5
v 4 0 5
v -4 0.6 5
v 4 0.6 5

# faces
f 3/2/1 2/2/1 1/2/1
f 4/2/1 2/2/1 3/2/1
f 9/2/1 8/2/1 7/2/1
f 10/2/1 8/2/1 9/2/1
f 11/2/1 6/2/1 5/2/1
f 12/2/1 6/2/1 11/2/1
f 17/2/1 14/2/1 13/2/1
f 18/2/1 14/2/1 17/2/1
f 19/2/1 16/2/1 15/2/1
f 20/2/1 16/2/1 19/2/1
f 23/1/1 22/1/1 21/1/1
f 24/1/1 22/1/1 23/1/1
f 27/2/1 26/2/1 25/2/1
f 28/2/1 26/2/1 27/2/1
f 31/2/1 30/2/1 29/2/1
f 32/2/1 30/2/1 31/2/1
f 35/2/1 34/2/1 33/2/1
f 36/2/1 34/2/1 35/2/1
f 39/2/1 38/2/1 37/2/1
f 40/2/1 38/2/1 39/2/1
f 41/2/1 39/2/1 37/2/1
f 43/2/1 41/2/1 37/2/1
f 43/2/1 42/2/1 41/2/1
f 44/2/1 42/2/1 43/2/1
f 47/2/1 46/2/1 45/2/1
f 48/2/1 46/2/1 47/2/1
f 55/3/1 50/3/1 49/3/1
f 56/4/1 51/4/1 50/4/1
f 56/3/1 50/3/1 55/3/1
f 57/3/1 52/3/1 51/3/1
f 57/4/1 51/4/1 56/4/1
f 58/4/1 53/4/1 52/4/1
f 58/3/1 52/3/1 57/3/1
f 59/3/1 54/3/1 53/3/1
f 59/4/1 53/4/1 58/4/1
f 60/3/1 54/3/1 59/3/1
f 63/2/1 62/2/1 61/2/1
f 64/2/1 62/2/1 63/2/1
f 67/2/1 66/2/1 65/2/1
f 68/2/1 66/2/1 67/2/1
f 71/2/1 70/2/1 69/2/1
f 72/2/1 70/2/1 71/2/1
f 75/2/1 74/2/1 73/2/1
f 76/2/1 75/2/1 73/2/1
f 77/2/1 76/2/1 73/2/1
f 78/2/1 76/2/1 77/2/1
f 81/2/1 80/2/1 79/2/1
f 82/2/1 80/2/1 81/2/1
f 85/2/1 84/2/1 83/2/1
f 86/2/1 84/2/1 85/2/1
f 87/2/2 88/2/2 89/2/2
f 89/2/2 88/2/2 90/2/2
f 91/2/2 92/2/2 93/2/2
f 93/2/2 92/2/2 94/2/2
f 95/2/2 96/2/2 97/2/2
f 97/2/2 96/2/2 98/2/2
f 99/2/2 100/2/2 101/2/2
f 99/2/2 101/2/2 102/2/2
f 99/2/2 102/2/2 103/2/2
f 103/2/2 102/2/2 104/2/2
f 105/2/2 106/2/2 107/2/2
f 107/2/2 106/2/2 108/2/2
f 109/2/2 110/2/2 111/2/2
f 111/2/2 110/2/2 112/2/2
f 113/3/2 114/3/2 119/3/2
f 114/4/2 115/4/2 120/4/2
f 119/3/2 114/3/2 120/3/2
f 115/3/2 116/3/2 121/3/2
f 120/4/2 115/4/2 121/4/2
f 116/4/2 117/4/2 122/4/2
f 121/3/2 116/3/2 122/3/2
f 117/3/2 118/3/2 123/3/2
f 122/4/2 117/4/2 123/4/2
f 123/3/2 118/3/2 124/3/2
f 125/2/2 126/2/2 127/2/2
f 127/2/2 126/2/2 128/2/2
f 129/2/2 130/2/2 131/2/2
f 131/2/2 130/2/2 132/2/2
f 133/2/2 134/2/2 135/2/2
f 135/2/2 134/2/2 136/2/2
f 137/2/2 138/2/2 139/2/2
f 139/2/2 138/2/2 140/2/2
f 141/1/2 142/1/2 143/1/2
f 143/1/2 142/1/2 144/1/2
f 143/2/2 144/2/2 145/2/2
f 145/2/2 144/2/2 146/2/2
f 145/1/2 146/1/2 147/1/2
f 147/1/2 146/1/2 148/1/2
f 149/2/2 150/2/2 153/2/2
f 153/2/2 150/2/2 154/2/2
f 151/2/2 152/2/2 155/2/2
f 155/2/2 152/2/2 156/2/2
f 159/1/2 160/1/2 161/1/2
f 161/1/2 160/1/2 162/1/2
f 157/2/2 158/2/2 163/2/2
f 163/2/2 158/2/2 164/2/2
f 165/2/2 166/2/2 167/2/2
f 167/2/2 166/2/2 168/2/2
f 171/2/3 170/2/3 169/2/3
f 172/2/3 170/2/3 171/2/3
f 175/2/3 174/2/3 173/2/3
f 176/2/3 174/2/3 175/2/3
f 179/2/3 178/2/3 177/2/3
f 180/2/3 178/2/3 179/2/3
f 184/2/3 182/2/3 181/2/3
f 185/2/3 184/2/3 183/2/3
f 186/2/3 182/2/3 184/2/3
f 186/2/3 184/2/3 185/2/3
f 187/2/3 182/2/3 186/2/3
f 188/2/3 182/2/3 187/2/3
f 191/2/3 190/2/3 189/2/3
f 192/2/3 190/2/3 191/2/3
f 195/2/3 194/2/3 193/2/3
f 196/2/3 194/2/3 195/2/3
f 200/2/3 198/2/3 197/2/3
f 201/1/3 199/1/3 198/1/3
f 201/2/3 198/2/3 200/2/3
f 203/1/3 199/1/3 201/1/3
f 204/2/3 203/2/3 202/2/3
f 205/1/3 199/1/3 203/1/3
f 205/2/3 203/2/3 204/2/3
f 207/1/3 199/1/3 205/1/3
f 208/2/3 207/2/3 206/2/3
f 209/1/3 199/1/3 207/1/3
f 209/2/3 207/2/3 208/2/3
f 210/1/3 199/1/3 209/1/3
f 213/2/3 212/2/3 211/2/3
f 214/2/3 212/2/3 213/2/3
f 215/2/3 213/2/3 211/2/3
f 218/2/3 212/2/3 214/2/3
f 219/2/3 217/2/3 216/2/3
f 219/2/3 218/2/3 217/2/3
f 219/2/3 215/2/3 211/2/3
f 219/2/3 216/2/3 215/2/3
f 220/2/3 212/2/3 218/2/3
f 220/2/3 218/2/3 219/2/3
f 221/1/3 220/1/3 219/1/3
f 222/1/3 220/1/3 221/1/3
f 225/2/3 224/2/3 223/2/3
f 226/2/3 224/2/3 225/2/3
f 227/2/4 228/2/4 229/2/4
f 229/2/4 228/2/4 230/2/4
f 227/2/4 229/2/4 231/2/4
f 230/2/4 228/2/4 232/2/4
f 227/2/4 231/2/4 233/2/4
f 231/2/4 232/2/4 233/2/4
f 232/2/4 228/2/4 234/2/4
f 233/2/4 232/2/4 234/2/4
f 235/2/4 236/2/4 237/2/4
f 237/2/4 236/2/4 238/2/4
f 235/2/4 237/2/4 239/2/4
f 238/2/4 236/2/4 242/2/4
f 241/2/4 242/2/4 243/2/4
f 243/2/4 242/2/4 244/2/4
f 244/2/4 242/2/4 246/2/4
f 245/2/4 246/2/4 248/2/4
f 247/2/4 248/2/4 250/2/4
f 249/2/4 250/2/4 251/2/4
f 250/2/4 248/2/4 252/2/4
f 251/2/4 250/2/4 252/2/4
f 252/2/4 248/2/4 253/2/4
f 248/2/4 246/2/4 254/2/4
f 253/2/4 248/2/4 254/2/4
f 254/2/4 246/2/4 255/2/4
f 246/2/4 242/2/4 256/2/4
f 255/2/4 246/2/4 256/2/4
f 256/2/4 242/2/4 258/2/4
f 239/2/4 240/2/4 259/2/4
f 235/2/4 239/2/4 259/2/4
f 259/2/4 240/2/4 260/2/4
f 257/2/4 258/2/4 261/2/4
f 258/2/4 242/2/4 262/2/4
f 261/2/4 258/2/4 262/2/4
f 242/2/4 236/2/4 262/2/4
f 235/2/4 259/2/4 263/2/4
f 262/2/4 236/2/4 264/2/4
f 235/2/4 263/2/4 265/2/4
f 263/2/4 264/2/4 265/2/4
f 264/2/4 236/2/4 266/2/4
f 265/2/4 264/2/4 266/2/4
f 267/2/4 268/2/4 269/2/4
f 269/2/4 268/2/4 270/2/4
f 271/2/4 272/2/4 273/2/4
f 273/2/4 272/2/4 274/2/4
f 275/2/4 276/2/4 277/2/4
f 277/2/4 276/2/4 278/2/4
f 279/2/4 280/2/4 281/2/4
f 281/2/4 280/2/4 282/2/4
f 283/2/4 284/2/4 285/2/4
f 285/2/4 284/2/4 286/2/4
f 283/2/4 285/2/4 287/2/4
f 287/2/4 285/2/4 288/2/4
f 286/2/4 284/2/4 289/2/4
f 289/2/4 284/2/4 290/2/4
f 288/2/4 285/2/4 292/2/4
f 292/2/4 285/2/4 295/2/4
f 291/2/4 292/2/4 295/2/4
f 293/2/4 294/2/4 298/2/4
f 296/2/4 297/2/4 299/2/4
f 297/2/4 298/2/4 299/2/4
f 291/2/4 295/2/4 299/2/4
f 295/2/4 296/2/4 299/2/4
f 298/2/4 294/2/4 300/2/4
f 299/2/4 298/2/4 300/2/4
f 301/2/4 302/2/4 303/2/4
f 303/2/4 302/2/4 304/2/4
f 305/2/4 306/2/4 307/2/4
f 307/2/4 306/2/4 308/2/4
f 307/1/4 308/1/4 309/1/4
f 309/1/4 308/1/4 310/1/4
f 311/2/4 312/2/4 313/2/4
f 313/2/4 312/2/4 314/2/4
f 315/2/4 316/2/4 317/2/4
f 317/2/4 316/2/4 318/2/4
f 319/2/4 320/2/4 322/2/4
f 322/2/4 320/2/4 323/2/4
f 321/2/4 322/2/4 325/2/4
f 323/2/4 324/2/4 325/2/4
f 322/2/4 323/2/4 325/2/4
f 325/2/4 324/2/4 326/2/4
f 329/2/5 328/2/5 327/2/5
f 330/2/5 328/2/5 329/2/5
f 333/2/5 332/2/5 331/2/5
f 334/2/5 332/2/5 333/2/5
f 339/2/5 336/2/5 335/2/5
f 340/2/5 336/2/5 339/2/5
f 341/2/5 338/2/5 337/2/5
f 342/2/5 338/2/5 341/2/5
f 346/2/5 344/2/5 343/2/5
f 347/2/5 344/2/5 346/2/5
f 348/2/5 344/2/5 347/2/5
f 349/1/5 345/1/5 344/1/5
f 349/2/5 344/2/5 348/2/5
f 350/1/5 345/1/5 349/1/5
f 351/2/5 348/2/5 347/2/5
f 352/2/5 348/2/5 351/2/5
f 353/2/5 348/2/5 352/2/5
f 354/2/5 348/2/5 353/2/5
f 355/2/5 353/2/5 352/2/5
f 356/2/5 353/2/5 355/2/5
f 359/2/5 358/2/5 357/2/5
f 360/2/5 358/2/5 359/2/5
f 363/1/5 362/1/5 361/1/5
f 364/1/5 362/1/5 363/1/5
f 367/2/5 366/2/5 365/2/5
f 368/2/5 366/2/5 367/2/5
f 369/2/6 370/2/6 373/2/6
f 373/2/6 370/2/6 374/2/6
f 371/2/6 372/2/6 375/2/6
f 375/2/6 372/2/6 376/2/6
f 377/1/6 378/1/6 379/1/6
f 379/1/6 378/1/6 380/1/6
f 379/1/6 380/1/6 381/1/6
f 381/1/6 380/1/6 382/1/6
f 381/1/6 382/1/6 383/1/6
f 383/1/6 382/1/6 384/1/6
f 383/1/6 384/1/6 385/1/6
f 385/1/6 384/1/6 386/1/6
f 385/1/6 386/1/6 387/1/6
f 387/1/6 386/1/6 388/1/6
f 389/3/6 390/3/6 393/3/6
f 393/3/6 390/3/6 394/3/6
f 394/3/6 390/3/6 395/3/6
f 395/3/6 390/3/6 396/3/6
f 391/3/6 392/3/6 397/3/6
f 397/3/6 392/3/6 398/3/6
f 398/3/6 392/3/6 399/3/6
f 399/3/6 392/3/6 400/3/6
f 389/3/6 393/3/6 401/3/6
f 393/4/6 394/4/6 401/4/6
f 394/3/6 395/3/6 402/3/6
f 401/4/6 394/4/6 402/4/6
f 395/4/6 396/4/6 403/4/6
f 402/3/6 395/3/6 403/3/6
f 403/4/6 396/4/6 404/4/6
f 397/4/6 398/4/6 405/4/6
f 398/3/6 399/3/6 406/3/6
f 405/4/6 398/4/6 406/4/6
f 399/4/6 400/4/6 407/4/6
f 406/3/6 399/3/6 407/3/6
f 400/3/6 392/3/6 408/3/6
f 407/4/6 400/4/6 408/4/6
f 401/3/6 402/3/6 409/3/6
f 389/3/6 401/3/6 409/3/6
f 403/3/6 404/3/6 409/3/6
f 402/3/6 403/3/6 409/3/6
f 409/3/6 404/3/6 410/3/6
f 410/3/6 404/3/6 411/3/6
f 411/3/6 404/3/6 412/3/6
f 406/3/6 407/3/6 413/3/6
f 405/3/6 406/3/6 413/3/6
f 407/3/6 408/3/6 413/3/6
f 413/3/6 408/3/6 414/3/6
f 414/3/6 408/3/6 415/3/6
f 408/3/6 392/3/6 416/3/6
f 415/3/6 408/3/6 416/3/6
f 409/4/6 410/4/6 417/4/6
f 389/3/6 409/3/6 417/3/6
f 410/3/6 411/3/6 418/3/6
f 417/4/6 410/4/6 418/4/6
f 411/4/6 412/4/6 419/4/6
f 418/3/6 411/3/6 419/3/6
f 419/4/6 412/4/6 420/4/6
f 413/4/6 414/4/6 421/4/6
f 414/3/6 415/3/6 422/3/6
f 421/4/6 414/4/6 422/4/6
f 415/4/6 416/4/6 423/4/6
f 422/3/6 415/3/6 423/3/6
f 416/3/6 392/3/6 424/3/6
f 423/4/6 416/4/6 424/4/6
f 417/3/6 418/3/6 425/3/6
f 389/3/6 417/3/6 425/3/6
f 419/3/6 420/3/6 425/3/6
f 418/3/6 419/3/6 425/3/6
f 425/3/6 420/3/6 426/3/6
f 423/3/6 424/3/6 427/3/6
f 422/3/6 423/3/6 427/3/6
f 421/3/6 422/3/6 427/3/6
f 424/3/6 392/3/6 428/3/6
f 427/3/6 424/3/6 428/3/6
f 429/2/6 430/2/6 433/2/6
f 431/2/6 432/2/6 434/2/6
f 429/2/6 433/2/6 435/2/6
f 433/2/6 434/2/6 435/2/6
f 434/2/6 432/2/6 436/2/6
f 435/2/6 434/2/6 436/2/6
f 437/2/6 438/2/6 441/2/6
f 441/2/6 438/2/6 442/2/6
f 439/2/6 440/2/6 443/2/6
f 443/2/6 440/2/6 444/2/6
f 445/2/6 446/2/6 447/2/6
f 447/2/6 446/2/6 448/2/6
f 449/1/6 450/1/6 453/1/6
f 451/1/6 452/1/6 453/1/6
f 450/1/6 451/1/6 453/1/6
f 453/1/6 452/1/6 454/1/6
f 455/2/6 456/2/6 459/2/6
f 459/2/6 456/2/6 460/2/6
f 457/2/6 458/2/6 461/2/6
f 461/2/6 458/2/6 462/2/6
f 455/2/6 459/2/6 463/2/6
f 460/2/6 456/2/6 464/2/6
f 457/2/6 461/2/6 465/2/6
f 462/2/6 458/2/6 466/2/6
f 455/2/6 463/2/6 467/2/6
f 463/2/6 464/2/6 467/2/6
f 464/2/6 456/2/6 468/2/6
f 467/2/6 464/2/6 468/2/6
f 465/2/6 466/2/6 469/2/6
f 457/2/6 465/2/6 469/2/6
f 466/2/6 458/2/6 470/2/6
f 469/2/6 466/2/6 470/2/6
f 471/2/6 472/2/6 475/2/6
f 475/2/6 472/2/6 476/2/6
f 473/2/6 474/2/6 477/2/6
f 477/2/6 474/2/6 478/2/6
f 479/2/6 480/2/6 483/2/6
f 483/2/6 480/2/6 484/2/6
f 481/2/6 482/2/6 485/2/6
f 485/2/6 482/2/6 486/2/6
f 471/2/6 475/2/6 487/2/6
f 476/2/6 472/2/6 488/2/6
f 473/2/6 477/2/6 489/2/6
f 478/2/6 474/2/6 490/2/6
f 471/2/6 487/2/6 491/2/6
f 487/2/6 488/2/6 491/2/6
f 488/2/6 472/2/6 492/2/6
f 491/2/6 488/2/6 492/2/6
f 489/2/6 490/2/6 493/2/6
f 473/2/6 489/2/6 493/2/6
f 490/2/6 474/2/6 494/2/6
f 493/2/6 490/2/6 494/2/6
f 495/2/6 496/2/6 498/2/6
f 498/2/6 496/2/6 499/2/6
f 499/2/6 496/2/6 500/2/6
f 496/1/6 497/1/6 501/1/6
f 500/2/6 496/2/6 501/2/6
f 501/1/6 497/1/6 502/1/6
f 499/2/6 500/2/6 503/2/6
f 503/2/6 500/2/6 504/2/6
f 504/2/6 500/2/6 505/2/6
f 505/2/6 500/2/6 506/2/6
f 504/2/6 505/2/6 507/2/6
f 507/2/6 505/2/6 508/2/6
f 509/2/6 510/2/6 511/2/6
f 511/2/6 510/2/6 512/2/6
f 513/2/6 514/2/6 515/2/6
f 515/2/6 514/2/6 516/2/6
