# MagicaVoxel @ Ephtracy

# group
o 

# material
mtllib Bench1.mtl
usemtl palette

# normals
vn -1 0 0
vn 1 0 0
vn 0 0 1
vn 0 0 -1
vn 0 -1 0
vn 0 1 0

# texcoords
vt 0.537109 0.5
vt 0.994141 0.5

# verts
v -1.1 -0.2 0.6
v -1.1 -0.2 -0.6
v -1.1 0 0.6
v -1.1 0 -0.4
v -1.1 0.6 -0.4
v -1.1 0.6 -0.6
v -1 -0.6 0.5
v -1 -0.6 -0.6
v -1 -0.5 0.3
v -1 -0.5 -0.4
v -1 -0.2 0.5
v -1 -0.2 0.3
v -1 -0.2 -0.4
v -1 -0.2 -0.6
v 0.9 -0.6 0.6
v 0.9 -0.6 -0.6
v 0.9 -0.5 0.4
v 0.9 -0.5 -0.4
v 0.9 -0.2 0.6
v 0.9 -0.2 0.5
v 0.9 -0.2 0.4
v 0.9 -0.2 -0.4
v 0.9 -0.2 -0.5
v 0.9 -0.2 -0.6
v 0.9 -0.1 0.4
v 0.9 -0.1 -0.5
v -0.8 -0.6 0.5
v -0.8 -0.6 -0.6
v -0.8 -0.5 0.3
v -0.8 -0.5 -0.4
v -0.8 -0.2 0.5
v -0.8 -0.2 0.4
v -0.8 -0.2 0.3
v -0.8 -0.2 -0.4
v -0.8 -0.2 -0.5
v -0.8 -0.2 -0.6
v -0.8 -0.1 0.4
v -0.8 -0.1 -0.5
v 1.1 -0.6 0.6
v 1.1 -0.6 -0.6
v 1.1 -0.5 0.4
v 1.1 -0.5 -0.4
v 1.1 -0.2 0.6
v 1.1 -0.2 0.4
v 1.1 -0.2 -0.4
v 1.1 -0.2 -0.6
v 1.1 0 0.6
v 1.1 0 -0.4
v 1.1 0.6 -0.4
v 1.1 0.6 -0.6
v -1.1 -0.2 0.6
v -1.1 0 0.6
v 0.9 -0.6 0.6
v 0.9 -0.2 0.6
v 1.1 -0.6 0.6
v 1.1 -0.2 0.6
v 1.1 0 0.6
v -1 -0.6 0.5
v -1 -0.2 0.5
v -0.8 -0.6 0.5
v -0.8 -0.2 0.5
v -1.1 0 -0.4
v -1.1 0.6 -0.4
v -1 -0.5 -0.4
v -1 -0.2 -0.4
v -0.8 -0.5 -0.4
v -0.8 -0.2 -0.4
v 0.9 -0.5 -0.4
v 0.9 -0.2 -0.4
v 1 -0.2 -0.4
v 1.1 -0.5 -0.4
v 1.1 -0.2 -0.4
v 1.1 0 -0.4
v 1.1 0.6 -0.4
v -0.8 -0.2 -0.5
v -0.8 -0.1 -0.5
v 0.9 -0.2 -0.5
v 0.9 -0.1 -0.5
v -0.8 -0.2 0.4
v -0.8 -0.1 0.4
v 0.9 -0.5 0.4
v 0.9 -0.2 0.4
v 0.9 -0.1 0.4
v 1 -0.2 0.4
v 1.1 -0.5 0.4
v 1.1 -0.2 0.4
v -1 -0.5 0.3
v -1 -0.2 0.3
v -0.8 -0.5 0.3
v -0.8 -0.2 0.3
v -1.1 -0.2 -0.6
v -1.1 0.6 -0.6
v -1 -0.6 -0.6
v -1 -0.2 -0.6
v -1 -0.1 -0.6
v -0.8 -0.6 -0.6
v -0.8 -0.2 -0.6
v 0.9 -0.6 -0.6
v 0.9 -0.2 -0.6
v 1 -0.2 -0.6
v 1 -0.1 -0.6
v 1.1 -0.6 -0.6
v 1.1 -0.2 -0.6
v 1.1 0.6 -0.6
v 0.9 -0.6 0.6
v 1.1 -0.6 0.6
v -1 -0.6 0.5
v -0.8 -0.6 0.5
v -1 -0.6 -0.6
v -0.8 -0.6 -0.6
v 0.9 -0.6 -0.6
v 1.1 -0.6 -0.6
v -1.1 -0.2 0.6
v 0.9 -0.2 0.6
v -1 -0.2 0.5
v -0.8 -0.2 0.5
v 0.9 -0.2 0.5
v -0.8 -0.2 0.4
v 0.9 -0.2 0.4
v 1 -0.2 0.4
v 1.1 -0.2 0.4
v -1 -0.2 0.3
v -0.8 -0.2 0.3
v -1 -0.2 -0.4
v -0.8 -0.2 -0.4
v 0.9 -0.2 -0.4
v 1 -0.2 -0.4
v 1.1 -0.2 -0.4
v -0.8 -0.2 -0.5
v 0.9 -0.2 -0.5
v -1.1 -0.2 -0.6
v -1 -0.2 -0.6
v -0.8 -0.2 -0.6
v 0.9 -0.2 -0.6
v -0.8 -0.1 0.4
v 0.9 -0.1 0.4
v -0.8 -0.1 -0.5
v 0.9 -0.1 -0.5
v 0.9 -0.5 0.4
v 1.1 -0.5 0.4
v -1 -0.5 0.3
v -0.8 -0.5 0.3
v -1 -0.5 -0.4
v -0.8 -0.5 -0.4
v 0.9 -0.5 -0.4
v 1.1 -0.5 -0.4
v -1.1 0 0.6
v 1.1 0 0.6
v -1.1 0 -0.4
v 1.1 0 -0.4
v -1.1 0.6 -0.4
v 1.1 0.6 -0.4
v -1.1 0.6 -0.6
v 1.1 0.6 -0.6

# faces
f 3/1/1 2/1/1 1/1/1
f 4/1/1 2/1/1 3/1/1
f 5/1/1 2/1/1 4/1/1
f 6/1/1 2/1/1 5/1/1
f 9/2/1 8/2/1 7/2/1
f 10/2/1 8/2/1 9/2/1
f 11/2/1 9/2/1 7/2/1
f 12/2/1 9/2/1 11/2/1
f 13/2/1 8/2/1 10/2/1
f 14/2/1 8/2/1 13/2/1
f 17/2/1 16/2/1 15/2/1
f 18/2/1 16/2/1 17/2/1
f 19/2/1 17/2/1 15/2/1
f 20/2/1 17/2/1 19/2/1
f 21/2/1 17/2/1 20/2/1
f 22/2/1 16/2/1 18/2/1
f 23/2/1 16/2/1 22/2/1
f 24/2/1 16/2/1 23/2/1
f 25/2/1 23/2/1 22/2/1
f 25/2/1 22/2/1 21/2/1
f 26/2/1 23/2/1 25/2/1
f 27/2/2 28/2/2 29/2/2
f 29/2/2 28/2/2 30/2/2
f 27/2/2 29/2/2 31/2/2
f 31/2/2 29/2/2 32/2/2
f 32/2/2 29/2/2 33/2/2
f 30/2/2 28/2/2 34/2/2
f 34/2/2 28/2/2 35/2/2
f 35/2/2 28/2/2 36/2/2
f 32/2/2 33/2/2 37/2/2
f 34/2/2 35/2/2 37/2/2
f 33/2/2 34/2/2 37/2/2
f 37/2/2 35/2/2 38/2/2
f 39/2/2 40/2/2 41/2/2
f 41/2/2 40/2/2 42/2/2
f 39/2/2 41/2/2 43/2/2
f 43/2/2 41/2/2 44/2/2
f 42/2/2 40/2/2 45/2/2
f 45/2/2 40/2/2 46/2/2
f 43/1/2 44/1/2 47/1/2
f 44/1/2 45/1/2 47/1/2
f 45/1/2 46/1/2 47/1/2
f 47/1/2 46/1/2 48/1/2
f 48/1/2 46/1/2 49/1/2
f 49/1/2 46/1/2 50/1/2
f 54/1/3 52/1/3 51/1/3
f 55/2/3 54/2/3 53/2/3
f 56/1/3 52/1/3 54/1/3
f 56/2/3 54/2/3 55/2/3
f 57/1/3 52/1/3 56/1/3
f 60/2/3 59/2/3 58/2/3
f 61/2/3 59/2/3 60/2/3
f 66/2/3 65/2/3 64/2/3
f 67/2/3 65/2/3 66/2/3
f 70/2/3 69/2/3 68/2/3
f 71/2/3 70/2/3 68/2/3
f 72/2/3 70/2/3 71/2/3
f 73/1/3 63/1/3 62/1/3
f 74/1/3 63/1/3 73/1/3
f 77/2/3 76/2/3 75/2/3
f 78/2/3 76/2/3 77/2/3
f 79/2/4 80/2/4 82/2/4
f 82/2/4 80/2/4 83/2/4
f 81/2/4 82/2/4 84/2/4
f 81/2/4 84/2/4 85/2/4
f 85/2/4 84/2/4 86/2/4
f 87/2/4 88/2/4 89/2/4
f 89/2/4 88/2/4 90/2/4
f 91/1/4 92/1/4 94/1/4
f 94/1/4 92/1/4 95/1/4
f 93/2/4 94/2/4 96/2/4
f 94/2/4 95/2/4 96/2/4
f 96/2/4 95/2/4 97/2/4
f 97/2/4 95/2/4 99/2/4
f 99/2/4 95/2/4 100/2/4
f 98/2/4 99/2/4 100/2/4
f 95/1/4 92/1/4 101/1/4
f 100/2/4 95/2/4 101/2/4
f 98/2/4 100/2/4 102/2/4
f 100/1/4 101/1/4 103/1/4
f 102/2/4 100/2/4 103/2/4
f 101/1/4 92/1/4 104/1/4
f 103/1/4 101/1/4 104/1/4
f 109/2/5 108/2/5 107/2/5
f 110/2/5 108/2/5 109/2/5
f 111/2/5 106/2/5 105/2/5
f 112/2/5 106/2/5 111/2/5
f 115/1/5 114/1/5 113/1/5
f 116/1/5 114/1/5 115/1/5
f 117/1/5 114/1/5 116/1/5
f 118/2/5 117/2/5 116/2/5
f 119/2/5 117/2/5 118/2/5
f 122/1/5 115/1/5 113/1/5
f 124/1/5 122/1/5 113/1/5
f 124/2/5 123/2/5 122/2/5
f 125/2/5 123/2/5 124/2/5
f 126/2/5 120/2/5 119/2/5
f 127/1/5 121/1/5 120/1/5
f 127/2/5 120/2/5 126/2/5
f 128/1/5 121/1/5 127/1/5
f 131/1/5 124/1/5 113/1/5
f 132/1/5 124/1/5 131/1/5
f 133/2/5 130/2/5 129/2/5
f 134/2/5 130/2/5 133/2/5
f 137/1/5 136/1/5 135/1/5
f 138/1/5 136/1/5 137/1/5
f 141/2/6 142/2/6 143/2/6
f 143/2/6 142/2/6 144/2/6
f 139/2/6 140/2/6 145/2/6
f 145/2/6 140/2/6 146/2/6
f 147/1/6 148/1/6 149/1/6
f 149/1/6 148/1/6 150/1/6
f 151/1/6 152/1/6 153/1/6
f 153/1/6 152/1/6 154/1/6
