# MagicaVoxel @ Ephtracy

# group
o 

# material
mtllib building 1-0.mtl
usemtl palette

# normals
vn -1 0 0
vn 1 0 0
vn 0 0 1
vn 0 0 -1
vn 0 -1 0
vn 0 1 0

# texcoords
vt 0.00976563 0.5
vt 0.0136719 0.5
vt 0.0292969 0.5
vt 0.0800781 0.5
vt 0.212891 0.5
vt 0.283203 0.5

# verts
v -1.8 2.1 1.9
v -1.8 2.1 -1.9
v -1.8 2.2 1.9
v -1.8 2.2 -1.9
v -1.8 2.3 1.9
v -1.8 2.3 -1.9
v -1.7 0 1.7
v -1.7 0 -1.7
v -1.7 2 1.7
v -1.7 2 -1.7
v -1.7 2.1 1.7
v -1.7 2.1 -1.7
v -1.6 0 1.8
v -1.6 0 1.7
v -1.6 0 -1.7
v -1.6 0 -1.8
v -1.6 2 1.8
v -1.6 2 1.7
v -1.6 2 -1.7
v -1.6 2 -1.8
v -1.6 2.1 1.8
v -1.6 2.1 1.7
v -1.6 2.1 -1.7
v -1.6 2.1 -1.8
v 1 0 1.8
v 1 0 1.7
v 1 0 -1.7
v 1 0 -1.8
v 1 2 1.8
v 1 2 1.7
v 1 2 -1.7
v 1 2 -1.8
v 1 2.1 1.8
v 1 2.1 1.7
v 1 2.1 -1.7
v 1 2.1 -1.8
v 1.1 0 1.7
v 1.1 0 0.8
v 1.1 0 -0.6
v 1.1 0 -1.7
v 1.1 0.1 0.8
v 1.1 0.1 0.7
v 1.1 0.1 -0.5
v 1.1 0.1 -0.6
v 1.1 0.2 0.7
v 1.1 0.2 0.6
v 1.1 0.2 -0.4
v 1.1 0.2 -0.5
v 1.1 0.3 0.6
v 1.1 0.3 -0.4
v 1.1 0.9 0.3
v 1.1 0.9 0.2
v 1.1 0.9 0
v 1.1 0.9 -0.1
v 1.1 1 0.2
v 1.1 1 0
v 1.1 1.2 0.2
v 1.1 1.2 0
v 1.1 1.4 0.2
v 1.1 1.4 0
v 1.1 1.6 0.2
v 1.1 1.6 0
v 1.1 1.7 0.6
v 1.1 1.7 0.3
v 1.1 1.7 0.2
v 1.1 1.7 0
v 1.1 1.7 -0.1
v 1.1 1.7 -0.4
v 1.1 2 1.7
v 1.1 2 -1.7
v 1.1 2.1 1.9
v 1.1 2.1 1.7
v 1.1 2.1 -1.7
v 1.1 2.1 -1.9
v 1.1 2.2 1.9
v 1.1 2.2 -1.9
v 1.1 2.3 1.9
v 1.1 2.3 -1.9
v 1.4 0.2 0.6
v 1.4 0.2 -0.4
v 1.4 0.3 0.6
v 1.4 0.3 -0.4
v 1.5 0.1 0.7
v 1.5 0.1 -0.5
v 1.5 0.2 0.7
v 1.5 0.2 -0.5
v 1.6 0 0.8
v 1.6 0 -0.6
v 1.6 0.1 0.8
v 1.6 0.1 -0.6
v -1.8 2.1 1.9
v -1.8 2.2 1.9
v -1.8 2.3 1.9
v 1.1 2.1 1.9
v 1.1 2.2 1.9
v 1.1 2.3 1.9
v -1.6 0 1.8
v -1.6 2 1.8
v -1.6 2.1 1.8
v 1 0 1.8
v 1 2 1.8
v 1 2.1 1.8
v -1.7 0 1.7
v -1.7 2 1.7
v -1.7 2.1 1.7
v -1.6 0 1.7
v -1.6 2 1.7
v -1.6 2.1 1.7
v 1 0 1.7
v 1 2 1.7
v 1 2.1 1.7
v 1.1 0 1.7
v 1.1 2 1.7
v 1.1 2.1 1.7
v 1.1 0 0.8
v 1.1 0.1 0.8
v 1.6 0 0.8
v 1.6 0.1 0.8
v 1.1 0.1 0.7
v 1.1 0.2 0.7
v 1.5 0.1 0.7
v 1.5 0.2 0.7
v 1.1 0.2 0.6
v 1.1 0.3 0.6
v 1.4 0.2 0.6
v 1.4 0.3 0.6
v 1.1 0.2 -0.4
v 1.1 0.3 -0.4
v 1.4 0.2 -0.4
v 1.4 0.3 -0.4
v 1.1 0.1 -0.5
v 1.1 0.2 -0.5
v 1.5 0.1 -0.5
v 1.5 0.2 -0.5
v 1.1 0 -0.6
v 1.1 0.1 -0.6
v 1.6 0 -0.6
v 1.6 0.1 -0.6
v -1.7 0 -1.7
v -1.7 2 -1.7
v -1.7 2.1 -1.7
v -1.6 0 -1.7
v -1.6 2 -1.7
v -1.6 2.1 -1.7
v 1 0 -1.7
v 1 2 -1.7
v 1 2.1 -1.7
v 1.1 0 -1.7
v 1.1 2 -1.7
v 1.1 2.1 -1.7
v -1.6 0 -1.8
v -1.6 2 -1.8
v -1.6 2.1 -1.8
v 1 0 -1.8
v 1 2 -1.8
v 1 2.1 -1.8
v -1.8 2.1 -1.9
v -1.8 2.2 -1.9
v -1.8 2.3 -1.9
v 1.1 2.1 -1.9
v 1.1 2.2 -1.9
v 1.1 2.3 -1.9
v -1.6 0 1.8
v 1 0 1.8
v -1.7 0 1.7
v -1.6 0 1.7
v 1 0 1.7
v 1.1 0 1.7
v 1.1 0 0.8
v 1.6 0 0.8
v 1 0 0.7
v 1.1 0 0.7
v 1.5 0 0.7
v 1 0 -0.5
v 1.1 0 -0.5
v 1.5 0 -0.5
v 1.1 0 -0.6
v 1.6 0 -0.6
v -1.7 0 -1.7
v -1.6 0 -1.7
v 1 0 -1.7
v 1.1 0 -1.7
v -1.6 0 -1.8
v 1 0 -1.8
v -1.8 2.1 1.9
v 1.1 2.1 1.9
v -1.6 2.1 1.8
v 1 2.1 1.8
v -1.7 2.1 1.7
v -1.6 2.1 1.7
v 1 2.1 1.7
v 1.1 2.1 1.7
v -1.7 2.1 -1.7
v -1.6 2.1 -1.7
v 1 2.1 -1.7
v 1.1 2.1 -1.7
v -1.6 2.1 -1.8
v 1 2.1 -1.8
v -1.8 2.1 -1.9
v 1.1 2.1 -1.9
v 1.1 0.1 0.8
v 1.6 0.1 0.8
v 1.1 0.1 0.7
v 1.5 0.1 0.7
v 1.1 0.1 -0.5
v 1.5 0.1 -0.5
v 1.1 0.1 -0.6
v 1.6 0.1 -0.6
v 1.1 0.2 0.7
v 1.5 0.2 0.7
v 1.1 0.2 0.6
v 1.4 0.2 0.6
v 1.1 0.2 -0.4
v 1.4 0.2 -0.4
v 1.1 0.2 -0.5
v 1.5 0.2 -0.5
v 1.1 0.3 0.6
v 1.4 0.3 0.6
v 1.1 0.3 -0.4
v 1.4 0.3 -0.4
v -1.8 2.3 1.9
v 1.1 2.3 1.9
v -1.8 2.3 -1.9
v 1.1 2.3 -1.9

# faces
f 3/4/1 2/4/1 1/4/1
f 4/4/1 2/4/1 3/4/1
f 5/1/1 4/1/1 3/1/1
f 6/1/1 4/1/1 5/1/1
f 9/4/1 8/4/1 7/4/1
f 10/4/1 8/4/1 9/4/1
f 11/1/1 10/1/1 9/1/1
f 12/1/1 10/1/1 11/1/1
f 17/4/1 14/4/1 13/4/1
f 18/4/1 14/4/1 17/4/1
f 19/4/1 16/4/1 15/4/1
f 20/4/1 16/4/1 19/4/1
f 21/1/1 18/1/1 17/1/1
f 22/1/1 18/1/1 21/1/1
f 23/1/1 20/1/1 19/1/1
f 24/1/1 20/1/1 23/1/1
f 25/4/2 26/4/2 29/4/2
f 29/4/2 26/4/2 30/4/2
f 27/4/2 28/4/2 31/4/2
f 31/4/2 28/4/2 32/4/2
f 29/1/2 30/1/2 33/1/2
f 33/1/2 30/1/2 34/1/2
f 31/1/2 32/1/2 35/1/2
f 35/1/2 32/1/2 36/1/2
f 37/4/2 38/4/2 41/4/2
f 39/4/2 40/4/2 44/4/2
f 41/4/2 42/4/2 45/4/2
f 43/4/2 44/4/2 48/4/2
f 45/4/2 46/4/2 49/4/2
f 47/4/2 48/4/2 50/4/2
f 49/6/2 50/6/2 51/6/2
f 51/6/2 50/6/2 52/6/2
f 52/6/2 50/6/2 53/6/2
f 53/6/2 50/6/2 54/6/2
f 51/2/2 52/2/2 55/2/2
f 52/6/2 53/6/2 55/6/2
f 53/2/2 54/2/2 56/2/2
f 55/6/2 53/6/2 56/6/2
f 51/2/2 55/2/2 57/2/2
f 55/3/2 56/3/2 57/3/2
f 56/2/2 54/2/2 58/2/2
f 57/3/2 56/3/2 58/3/2
f 51/2/2 57/2/2 59/2/2
f 57/2/2 58/2/2 59/2/2
f 58/2/2 54/2/2 60/2/2
f 59/2/2 58/2/2 60/2/2
f 51/2/2 59/2/2 61/2/2
f 59/3/2 60/3/2 61/3/2
f 60/2/2 54/2/2 62/2/2
f 61/3/2 60/3/2 62/3/2
f 45/4/2 49/4/2 63/4/2
f 49/6/2 51/6/2 63/6/2
f 51/2/2 61/2/2 64/2/2
f 63/6/2 51/6/2 64/6/2
f 61/6/2 62/6/2 65/6/2
f 64/2/2 61/2/2 65/2/2
f 62/2/2 54/2/2 66/2/2
f 65/6/2 62/6/2 66/6/2
f 54/6/2 50/6/2 67/6/2
f 66/2/2 54/2/2 67/2/2
f 50/4/2 48/4/2 68/4/2
f 67/6/2 50/6/2 68/6/2
f 64/4/2 65/4/2 69/4/2
f 37/4/2 41/4/2 69/4/2
f 67/4/2 68/4/2 69/4/2
f 45/4/2 63/4/2 69/4/2
f 65/4/2 66/4/2 69/4/2
f 63/4/2 64/4/2 69/4/2
f 66/4/2 67/4/2 69/4/2
f 41/4/2 45/4/2 69/4/2
f 68/4/2 48/4/2 70/4/2
f 69/4/2 68/4/2 70/4/2
f 44/4/2 40/4/2 70/4/2
f 48/4/2 44/4/2 70/4/2
f 69/1/2 70/1/2 72/1/2
f 72/1/2 70/1/2 73/1/2
f 72/4/2 73/4/2 75/4/2
f 73/4/2 74/4/2 75/4/2
f 71/4/2 72/4/2 75/4/2
f 75/4/2 74/4/2 76/4/2
f 75/1/2 76/1/2 77/1/2
f 77/1/2 76/1/2 78/1/2
f 79/1/2 80/1/2 81/1/2
f 81/1/2 80/1/2 82/1/2
f 83/1/2 84/1/2 85/1/2
f 85/1/2 84/1/2 86/1/2
f 87/1/2 88/1/2 89/1/2
f 89/1/2 88/1/2 90/1/2
f 94/4/3 92/4/3 91/4/3
f 95/1/3 93/1/3 92/1/3
f 95/4/3 92/4/3 94/4/3
f 96/1/3 93/1/3 95/1/3
f 100/4/3 98/4/3 97/4/3
f 101/1/3 99/1/3 98/1/3
f 101/4/3 98/4/3 100/4/3
f 102/1/3 99/1/3 101/1/3
f 106/4/3 104/4/3 103/4/3
f 107/1/3 105/1/3 104/1/3
f 107/4/3 104/4/3 106/4/3
f 108/1/3 105/1/3 107/1/3
f 112/4/3 110/4/3 109/4/3
f 113/1/3 111/1/3 110/1/3
f 113/4/3 110/4/3 112/4/3
f 114/1/3 111/1/3 113/1/3
f 117/1/3 116/1/3 115/1/3
f 118/1/3 116/1/3 117/1/3
f 121/1/3 120/1/3 119/1/3
f 122/1/3 120/1/3 121/1/3
f 125/1/3 124/1/3 123/1/3
f 126/1/3 124/1/3 125/1/3
f 127/1/4 128/1/4 129/1/4
f 129/1/4 128/1/4 130/1/4
f 131/1/4 132/1/4 133/1/4
f 133/1/4 132/1/4 134/1/4
f 135/1/4 136/1/4 137/1/4
f 137/1/4 136/1/4 138/1/4
f 139/4/4 140/4/4 142/4/4
f 140/1/4 141/1/4 143/1/4
f 142/4/4 140/4/4 143/4/4
f 143/1/4 141/1/4 144/1/4
f 145/4/4 146/4/4 148/4/4
f 146/1/4 147/1/4 149/1/4
f 148/4/4 146/4/4 149/4/4
f 149/1/4 147/1/4 150/1/4
f 151/4/4 152/4/4 154/4/4
f 152/1/4 153/1/4 155/1/4
f 154/4/4 152/4/4 155/4/4
f 155/1/4 153/1/4 156/1/4
f 157/4/4 158/4/4 160/4/4
f 158/1/4 159/1/4 161/1/4
f 160/4/4 158/4/4 161/4/4
f 161/1/4 159/1/4 162/1/4
f 166/4/5 164/4/5 163/4/5
f 167/4/5 164/4/5 166/4/5
f 169/4/5 168/4/5 167/4/5
f 171/5/5 167/5/5 166/5/5
f 171/4/5 169/4/5 167/4/5
f 172/1/5 170/1/5 169/1/5
f 172/4/5 169/4/5 171/4/5
f 173/1/5 170/1/5 172/1/5
f 174/5/5 171/5/5 166/5/5
f 174/5/5 172/5/5 171/5/5
f 174/5/5 173/5/5 172/5/5
f 175/5/5 173/5/5 174/5/5
f 176/1/5 170/1/5 173/1/5
f 176/5/5 173/5/5 175/5/5
f 177/4/5 175/4/5 174/4/5
f 177/1/5 176/1/5 175/1/5
f 178/1/5 170/1/5 176/1/5
f 178/1/5 176/1/5 177/1/5
f 179/4/5 166/4/5 165/4/5
f 180/5/5 174/5/5 166/5/5
f 180/4/5 166/4/5 179/4/5
f 181/4/5 177/4/5 174/4/5
f 181/5/5 174/5/5 180/5/5
f 182/4/5 177/4/5 181/4/5
f 183/4/5 181/4/5 180/4/5
f 184/4/5 181/4/5 183/4/5
f 187/4/5 186/4/5 185/4/5
f 188/4/5 186/4/5 187/4/5
f 189/4/5 187/4/5 185/4/5
f 190/4/5 187/4/5 189/4/5
f 191/4/5 186/4/5 188/4/5
f 192/4/5 186/4/5 191/4/5
f 193/4/5 189/4/5 185/4/5
f 197/4/5 194/4/5 193/4/5
f 198/4/5 196/4/5 195/4/5
f 199/4/5 193/4/5 185/4/5
f 199/4/5 198/4/5 197/4/5
f 199/4/5 197/4/5 193/4/5
f 200/4/5 196/4/5 198/4/5
f 200/4/5 198/4/5 199/4/5
f 201/1/6 202/1/6 203/1/6
f 203/1/6 202/1/6 204/1/6
f 204/1/6 202/1/6 206/1/6
f 205/1/6 206/1/6 207/1/6
f 206/1/6 202/1/6 208/1/6
f 207/1/6 206/1/6 208/1/6
f 209/1/6 210/1/6 211/1/6
f 211/1/6 210/1/6 212/1/6
f 212/1/6 210/1/6 214/1/6
f 213/1/6 214/1/6 215/1/6
f 214/1/6 210/1/6 216/1/6
f 215/1/6 214/1/6 216/1/6
f 217/1/6 218/1/6 219/1/6
f 219/1/6 218/1/6 220/1/6
f 221/1/6 222/1/6 223/1/6
f 223/1/6 222/1/6 224/1/6
