# MagicaVoxel @ Ephtracy

# group
o 

# material
mtllib building 2.mtl
usemtl palette

# normals
vn -1 0 0
vn 1 0 0
vn 0 0 1
vn 0 0 -1
vn 0 -1 0
vn 0 1 0

# texcoords
vt 0.00976563 0.5
vt 0.0136719 0.5
vt 0.0292969 0.5
vt 0.0332031 0.5
vt 0.0800781 0.5
vt 0.212891 0.5
vt 0.283203 0.5

# verts
v -1.8 2.1 1.9
v -1.8 2.1 -1.9
v -1.8 2.2 1.9
v -1.8 2.2 -1.9
v -1.8 2.3 1.9
v -1.8 2.3 -1.9
v -1.7 0 1.7
v -1.7 0 -1.7
v -1.7 2 1.7
v -1.7 2 -1.7
v -1.7 2.1 1.7
v -1.7 2.1 -1.7
v -1.6 0 1.8
v -1.6 0 1.7
v -1.6 0 -1.7
v -1.6 0 -1.8
v -1.6 2 1.8
v -1.6 2 1.7
v -1.6 2 -1.7
v -1.6 2 -1.8
v -1.6 2.1 1.8
v -1.6 2.1 1.7
v -1.6 2.1 -1.7
v -1.6 2.1 -1.8
v 1 0 1.8
v 1 0 1.7
v 1 0 -1.7
v 1 0 -1.8
v 1 2 1.8
v 1 2 1.7
v 1 2 -1.7
v 1 2 -1.8
v 1 2.1 1.8
v 1 2.1 1.7
v 1 2.1 -1.7
v 1 2.1 -1.8
v 1.1 0 1.7
v 1.1 0 0.8
v 1.1 0 -0.6
v 1.1 0 -1.7
v 1.1 0.1 0.8
v 1.1 0.1 0.7
v 1.1 0.1 -0.5
v 1.1 0.1 -0.6
v 1.1 0.2 0.7
v 1.1 0.2 0.6
v 1.1 0.2 -0.4
v 1.1 0.2 -0.5
v 1.1 0.3 0.6
v 1.1 0.3 -0.4
v 1.1 0.6 1.6
v 1.1 0.6 0.9
v 1.1 0.6 -0.8
v 1.1 0.6 -1.5
v 1.1 0.7 1.6
v 1.1 0.7 0.9
v 1.1 0.7 -0.8
v 1.1 0.7 -1.5
v 1.1 0.8 1.5
v 1.1 0.8 1.3
v 1.1 0.8 1.2
v 1.1 0.8 1
v 1.1 0.8 -0.9
v 1.1 0.8 -1.1
v 1.1 0.8 -1.2
v 1.1 0.8 -1.4
v 1.1 0.9 0.3
v 1.1 0.9 0.2
v 1.1 0.9 0
v 1.1 0.9 -0.1
v 1.1 1 0.2
v 1.1 1 0
v 1.1 1.2 1.5
v 1.1 1.2 1.3
v 1.1 1.2 1.2
v 1.1 1.2 1
v 1.1 1.2 0.2
v 1.1 1.2 0
v 1.1 1.2 -0.9
v 1.1 1.2 -1.1
v 1.1 1.2 -1.2
v 1.1 1.2 -1.4
v 1.1 1.3 1.5
v 1.1 1.3 1.3
v 1.1 1.3 1.2
v 1.1 1.3 1
v 1.1 1.3 -0.9
v 1.1 1.3 -1.1
v 1.1 1.3 -1.2
v 1.1 1.3 -1.4
v 1.1 1.4 0.2
v 1.1 1.4 0
v 1.1 1.6 0.2
v 1.1 1.6 0
v 1.1 1.7 1.5
v 1.1 1.7 1.3
v 1.1 1.7 1.2
v 1.1 1.7 1
v 1.1 1.7 0.6
v 1.1 1.7 0.3
v 1.1 1.7 0.2
v 1.1 1.7 0
v 1.1 1.7 -0.1
v 1.1 1.7 -0.4
v 1.1 1.7 -0.9
v 1.1 1.7 -1.1
v 1.1 1.7 -1.2
v 1.1 1.7 -1.4
v 1.1 1.8 1.6
v 1.1 1.8 0.9
v 1.1 1.8 -0.8
v 1.1 1.8 -1.5
v 1.1 2 1.7
v 1.1 2 -1.7
v 1.1 2.1 1.9
v 1.1 2.1 1.7
v 1.1 2.1 -1.7
v 1.1 2.1 -1.9
v 1.1 2.2 1.9
v 1.1 2.2 -1.9
v 1.1 2.3 1.9
v 1.1 2.3 -1.9
v 1.4 0.2 0.6
v 1.4 0.2 -0.4
v 1.4 0.3 0.6
v 1.4 0.3 -0.4
v 1.5 0.1 0.7
v 1.5 0.1 -0.5
v 1.5 0.2 0.7
v 1.5 0.2 -0.5
v 1.6 0 0.8
v 1.6 0 -0.6
v 1.6 0.1 0.8
v 1.6 0.1 -0.6
v -1.8 2.1 1.9
v -1.8 2.2 1.9
v -1.8 2.3 1.9
v 1.1 2.1 1.9
v 1.1 2.2 1.9
v 1.1 2.3 1.9
v -1.6 0 1.8
v -1.6 2 1.8
v -1.6 2.1 1.8
v 1 0 1.8
v 1 2 1.8
v 1 2.1 1.8
v -1.7 0 1.7
v -1.7 2 1.7
v -1.7 2.1 1.7
v -1.6 0 1.7
v -1.6 2 1.7
v -1.6 2.1 1.7
v 1 0 1.7
v 1 2 1.7
v 1 2.1 1.7
v 1.1 0 1.7
v 1.1 2 1.7
v 1.1 2.1 1.7
v 1.1 0 0.8
v 1.1 0.1 0.8
v 1.6 0 0.8
v 1.6 0.1 0.8
v 1.1 0.1 0.7
v 1.1 0.2 0.7
v 1.5 0.1 0.7
v 1.5 0.2 0.7
v 1.1 0.2 0.6
v 1.1 0.3 0.6
v 1.4 0.2 0.6
v 1.4 0.3 0.6
v 1.1 0.2 -0.4
v 1.1 0.3 -0.4
v 1.4 0.2 -0.4
v 1.4 0.3 -0.4
v 1.1 0.1 -0.5
v 1.1 0.2 -0.5
v 1.5 0.1 -0.5
v 1.5 0.2 -0.5
v 1.1 0 -0.6
v 1.1 0.1 -0.6
v 1.6 0 -0.6
v 1.6 0.1 -0.6
v -1.7 0 -1.7
v -1.7 2 -1.7
v -1.7 2.1 -1.7
v -1.6 0 -1.7
v -1.6 2 -1.7
v -1.6 2.1 -1.7
v 1 0 -1.7
v 1 2 -1.7
v 1 2.1 -1.7
v 1.1 0 -1.7
v 1.1 2 -1.7
v 1.1 2.1 -1.7
v -1.6 0 -1.8
v -1.6 2 -1.8
v -1.6 2.1 -1.8
v 1 0 -1.8
v 1 2 -1.8
v 1 2.1 -1.8
v -1.8 2.1 -1.9
v -1.8 2.2 -1.9
v -1.8 2.3 -1.9
v 1.1 2.1 -1.9
v 1.1 2.2 -1.9
v 1.1 2.3 -1.9
v -1.6 0 1.8
v 1 0 1.8
v -1.7 0 1.7
v -1.6 0 1.7
v 1 0 1.7
v 1.1 0 1.7
v 1.1 0 0.8
v 1.6 0 0.8
v 1 0 0.7
v 1.1 0 0.7
v 1.5 0 0.7
v 1 0 -0.5
v 1.1 0 -0.5
v 1.5 0 -0.5
v 1.1 0 -0.6
v 1.6 0 -0.6
v -1.7 0 -1.7
v -1.6 0 -1.7
v 1 0 -1.7
v 1.1 0 -1.7
v -1.6 0 -1.8
v 1 0 -1.8
v -1.8 2.1 1.9
v 1.1 2.1 1.9
v -1.6 2.1 1.8
v 1 2.1 1.8
v -1.7 2.1 1.7
v -1.6 2.1 1.7
v 1 2.1 1.7
v 1.1 2.1 1.7
v -1.7 2.1 -1.7
v -1.6 2.1 -1.7
v 1 2.1 -1.7
v 1.1 2.1 -1.7
v -1.6 2.1 -1.8
v 1 2.1 -1.8
v -1.8 2.1 -1.9
v 1.1 2.1 -1.9
v 1.1 0.1 0.8
v 1.6 0.1 0.8
v 1.1 0.1 0.7
v 1.5 0.1 0.7
v 1.1 0.1 -0.5
v 1.5 0.1 -0.5
v 1.1 0.1 -0.6
v 1.6 0.1 -0.6
v 1.1 0.2 0.7
v 1.5 0.2 0.7
v 1.1 0.2 0.6
v 1.4 0.2 0.6
v 1.1 0.2 -0.4
v 1.4 0.2 -0.4
v 1.1 0.2 -0.5
v 1.5 0.2 -0.5
v 1.1 0.3 0.6
v 1.4 0.3 0.6
v 1.1 0.3 -0.4
v 1.4 0.3 -0.4
v -1.8 2.3 1.9
v 1.1 2.3 1.9
v -1.8 2.3 -1.9
v 1.1 2.3 -1.9

# faces
f 3/5/1 2/5/1 1/5/1
f 4/5/1 2/5/1 3/5/1
f 5/1/1 4/1/1 3/1/1
f 6/1/1 4/1/1 5/1/1
f 9/5/1 8/5/1 7/5/1
f 10/5/1 8/5/1 9/5/1
f 11/1/1 10/1/1 9/1/1
f 12/1/1 10/1/1 11/1/1
f 17/5/1 14/5/1 13/5/1
f 18/5/1 14/5/1 17/5/1
f 19/5/1 16/5/1 15/5/1
f 20/5/1 16/5/1 19/5/1
f 21/1/1 18/1/1 17/1/1
f 22/1/1 18/1/1 21/1/1
f 23/1/1 20/1/1 19/1/1
f 24/1/1 20/1/1 23/1/1
f 25/5/2 26/5/2 29/5/2
f 29/5/2 26/5/2 30/5/2
f 27/5/2 28/5/2 31/5/2
f 31/5/2 28/5/2 32/5/2
f 29/1/2 30/1/2 33/1/2
f 33/1/2 30/1/2 34/1/2
f 31/1/2 32/1/2 35/1/2
f 35/1/2 32/1/2 36/1/2
f 37/5/2 38/5/2 41/5/2
f 39/5/2 40/5/2 44/5/2
f 41/5/2 42/5/2 45/5/2
f 43/5/2 44/5/2 48/5/2
f 45/5/2 46/5/2 49/5/2
f 47/5/2 48/5/2 50/5/2
f 45/5/2 49/5/2 51/5/2
f 37/5/2 41/5/2 51/5/2
f 41/5/2 45/5/2 51/5/2
f 51/5/2 49/5/2 52/5/2
f 50/5/2 48/5/2 53/5/2
f 44/5/2 40/5/2 53/5/2
f 48/5/2 44/5/2 53/5/2
f 53/5/2 40/5/2 54/5/2
f 51/4/2 52/4/2 55/4/2
f 37/5/2 51/5/2 55/5/2
f 52/5/2 49/5/2 56/5/2
f 55/4/2 52/4/2 56/4/2
f 53/4/2 54/4/2 57/4/2
f 50/5/2 53/5/2 57/5/2
f 54/5/2 40/5/2 58/5/2
f 57/4/2 54/4/2 58/4/2
f 55/7/2 56/7/2 59/7/2
f 59/7/2 56/7/2 60/7/2
f 60/7/2 56/7/2 61/7/2
f 61/7/2 56/7/2 62/7/2
f 57/7/2 58/7/2 63/7/2
f 63/7/2 58/7/2 64/7/2
f 64/7/2 58/7/2 65/7/2
f 65/7/2 58/7/2 66/7/2
f 49/7/2 50/7/2 67/7/2
f 67/7/2 50/7/2 68/7/2
f 68/7/2 50/7/2 69/7/2
f 69/7/2 50/7/2 70/7/2
f 67/2/2 68/2/2 71/2/2
f 68/7/2 69/7/2 71/7/2
f 69/2/2 70/2/2 72/2/2
f 71/7/2 69/7/2 72/7/2
f 55/7/2 59/7/2 73/7/2
f 59/3/2 60/3/2 73/3/2
f 60/4/2 61/4/2 74/4/2
f 73/3/2 60/3/2 74/3/2
f 61/3/2 62/3/2 75/3/2
f 74/4/2 61/4/2 75/4/2
f 62/7/2 56/7/2 76/7/2
f 75/3/2 62/3/2 76/3/2
f 71/3/2 72/3/2 77/3/2
f 67/2/2 71/2/2 77/2/2
f 72/2/2 70/2/2 78/2/2
f 77/3/2 72/3/2 78/3/2
f 57/7/2 63/7/2 79/7/2
f 63/3/2 64/3/2 79/3/2
f 64/2/2 65/2/2 80/2/2
f 79/3/2 64/3/2 80/3/2
f 65/3/2 66/3/2 81/3/2
f 80/2/2 65/2/2 81/2/2
f 66/7/2 58/7/2 82/7/2
f 81/3/2 66/3/2 82/3/2
f 74/4/2 75/4/2 83/4/2
f 55/7/2 73/7/2 83/7/2
f 73/4/2 74/4/2 83/4/2
f 75/4/2 76/4/2 83/4/2
f 83/4/2 76/4/2 84/4/2
f 84/4/2 76/4/2 85/4/2
f 76/7/2 56/7/2 86/7/2
f 85/4/2 76/4/2 86/4/2
f 80/2/2 81/2/2 87/2/2
f 81/2/2 82/2/2 87/2/2
f 57/7/2 79/7/2 87/7/2
f 79/2/2 80/2/2 87/2/2
f 87/2/2 82/2/2 88/2/2
f 88/2/2 82/2/2 89/2/2
f 82/7/2 58/7/2 90/7/2
f 89/2/2 82/2/2 90/2/2
f 67/2/2 77/2/2 91/2/2
f 77/2/2 78/2/2 91/2/2
f 78/2/2 70/2/2 92/2/2
f 91/2/2 78/2/2 92/2/2
f 67/2/2 91/2/2 93/2/2
f 91/3/2 92/3/2 93/3/2
f 92/2/2 70/2/2 94/2/2
f 93/3/2 92/3/2 94/3/2
f 83/3/2 84/3/2 95/3/2
f 55/7/2 83/7/2 95/7/2
f 84/4/2 85/4/2 96/4/2
f 95/3/2 84/3/2 96/3/2
f 85/3/2 86/3/2 97/3/2
f 96/4/2 85/4/2 97/4/2
f 86/7/2 56/7/2 98/7/2
f 97/3/2 86/3/2 98/3/2
f 56/5/2 49/5/2 99/5/2
f 49/7/2 67/7/2 99/7/2
f 67/2/2 93/2/2 100/2/2
f 99/7/2 67/7/2 100/7/2
f 93/7/2 94/7/2 101/7/2
f 100/2/2 93/2/2 101/2/2
f 94/2/2 70/2/2 102/2/2
f 101/7/2 94/7/2 102/7/2
f 70/7/2 50/7/2 103/7/2
f 102/2/2 70/2/2 103/2/2
f 50/5/2 57/5/2 104/5/2
f 103/7/2 50/7/2 104/7/2
f 57/7/2 87/7/2 105/7/2
f 87/3/2 88/3/2 105/3/2
f 88/2/2 89/2/2 106/2/2
f 105/3/2 88/3/2 106/3/2
f 89/3/2 90/3/2 107/3/2
f 106/2/2 89/2/2 107/2/2
f 90/7/2 58/7/2 108/7/2
f 107/3/2 90/3/2 108/3/2
f 96/7/2 97/7/2 109/7/2
f 37/5/2 55/5/2 109/5/2
f 55/7/2 95/7/2 109/7/2
f 95/7/2 96/7/2 109/7/2
f 97/7/2 98/7/2 109/7/2
f 102/5/2 103/5/2 110/5/2
f 109/7/2 98/7/2 110/7/2
f 98/7/2 56/7/2 110/7/2
f 99/5/2 100/5/2 110/5/2
f 100/5/2 101/5/2 110/5/2
f 103/5/2 104/5/2 110/5/2
f 56/5/2 99/5/2 110/5/2
f 101/5/2 102/5/2 110/5/2
f 107/7/2 108/7/2 111/7/2
f 110/5/2 104/5/2 111/5/2
f 105/7/2 106/7/2 111/7/2
f 104/5/2 57/5/2 111/5/2
f 106/7/2 107/7/2 111/7/2
f 57/7/2 105/7/2 111/7/2
f 108/7/2 58/7/2 112/7/2
f 111/7/2 108/7/2 112/7/2
f 58/5/2 40/5/2 112/5/2
f 110/5/2 111/5/2 113/5/2
f 109/5/2 110/5/2 113/5/2
f 111/5/2 112/5/2 113/5/2
f 37/5/2 109/5/2 113/5/2
f 112/5/2 40/5/2 114/5/2
f 113/5/2 112/5/2 114/5/2
f 113/1/2 114/1/2 116/1/2
f 116/1/2 114/1/2 117/1/2
f 116/5/2 117/5/2 119/5/2
f 117/5/2 118/5/2 119/5/2
f 115/5/2 116/5/2 119/5/2
f 119/5/2 118/5/2 120/5/2
f 119/1/2 120/1/2 121/1/2
f 121/1/2 120/1/2 122/1/2
f 123/1/2 124/1/2 125/1/2
f 125/1/2 124/1/2 126/1/2
f 127/1/2 128/1/2 129/1/2
f 129/1/2 128/1/2 130/1/2
f 131/1/2 132/1/2 133/1/2
f 133/1/2 132/1/2 134/1/2
f 138/5/3 136/5/3 135/5/3
f 139/1/3 137/1/3 136/1/3
f 139/5/3 136/5/3 138/5/3
f 140/1/3 137/1/3 139/1/3
f 144/5/3 142/5/3 141/5/3
f 145/1/3 143/1/3 142/1/3
f 145/5/3 142/5/3 144/5/3
f 146/1/3 143/1/3 145/1/3
f 150/5/3 148/5/3 147/5/3
f 151/1/3 149/1/3 148/1/3
f 151/5/3 148/5/3 150/5/3
f 152/1/3 149/1/3 151/1/3
f 156/5/3 154/5/3 153/5/3
f 157/1/3 155/1/3 154/1/3
f 157/5/3 154/5/3 156/5/3
f 158/1/3 155/1/3 157/1/3
f 161/1/3 160/1/3 159/1/3
f 162/1/3 160/1/3 161/1/3
f 165/1/3 164/1/3 163/1/3
f 166/1/3 164/1/3 165/1/3
f 169/1/3 168/1/3 167/1/3
f 170/1/3 168/1/3 169/1/3
f 171/1/4 172/1/4 173/1/4
f 173/1/4 172/1/4 174/1/4
f 175/1/4 176/1/4 177/1/4
f 177/1/4 176/1/4 178/1/4
f 179/1/4 180/1/4 181/1/4
f 181/1/4 180/1/4 182/1/4
f 183/5/4 184/5/4 186/5/4
f 184/1/4 185/1/4 187/1/4
f 186/5/4 184/5/4 187/5/4
f 187/1/4 185/1/4 188/1/4
f 189/5/4 190/5/4 192/5/4
f 190/1/4 191/1/4 193/1/4
f 192/5/4 190/5/4 193/5/4
f 193/1/4 191/1/4 194/1/4
f 195/5/4 196/5/4 198/5/4
f 196/1/4 197/1/4 199/1/4
f 198/5/4 196/5/4 199/5/4
f 199/1/4 197/1/4 200/1/4
f 201/5/4 202/5/4 204/5/4
f 202/1/4 203/1/4 205/1/4
f 204/5/4 202/5/4 205/5/4
f 205/1/4 203/1/4 206/1/4
f 210/5/5 208/5/5 207/5/5
f 211/5/5 208/5/5 210/5/5
f 213/5/5 212/5/5 211/5/5
f 215/6/5 211/6/5 210/6/5
f 215/5/5 213/5/5 211/5/5
f 216/1/5 214/1/5 213/1/5
f 216/5/5 213/5/5 215/5/5
f 217/1/5 214/1/5 216/1/5
f 218/6/5 215/6/5 210/6/5
f 218/6/5 216/6/5 215/6/5
f 218/6/5 217/6/5 216/6/5
f 219/6/5 217/6/5 218/6/5
f 220/1/5 214/1/5 217/1/5
f 220/6/5 217/6/5 219/6/5
f 221/5/5 219/5/5 218/5/5
f 221/1/5 220/1/5 219/1/5
f 222/1/5 214/1/5 220/1/5
f 222/1/5 220/1/5 221/1/5
f 223/5/5 210/5/5 209/5/5
f 224/6/5 218/6/5 210/6/5
f 224/5/5 210/5/5 223/5/5
f 225/5/5 221/5/5 218/5/5
f 225/6/5 218/6/5 224/6/5
f 226/5/5 221/5/5 225/5/5
f 227/5/5 225/5/5 224/5/5
f 228/5/5 225/5/5 227/5/5
f 231/5/5 230/5/5 229/5/5
f 232/5/5 230/5/5 231/5/5
f 233/5/5 231/5/5 229/5/5
f 234/5/5 231/5/5 233/5/5
f 235/5/5 230/5/5 232/5/5
f 236/5/5 230/5/5 235/5/5
f 237/5/5 233/5/5 229/5/5
f 241/5/5 238/5/5 237/5/5
f 242/5/5 240/5/5 239/5/5
f 243/5/5 237/5/5 229/5/5
f 243/5/5 242/5/5 241/5/5
f 243/5/5 241/5/5 237/5/5
f 244/5/5 240/5/5 242/5/5
f 244/5/5 242/5/5 243/5/5
f 245/1/6 246/1/6 247/1/6
f 247/1/6 246/1/6 248/1/6
f 248/1/6 246/1/6 250/1/6
f 249/1/6 250/1/6 251/1/6
f 250/1/6 246/1/6 252/1/6
f 251/1/6 250/1/6 252/1/6
f 253/1/6 254/1/6 255/1/6
f 255/1/6 254/1/6 256/1/6
f 256/1/6 254/1/6 258/1/6
f 257/1/6 258/1/6 259/1/6
f 258/1/6 254/1/6 260/1/6
f 259/1/6 258/1/6 260/1/6
f 261/1/6 262/1/6 263/1/6
f 263/1/6 262/1/6 264/1/6
f 265/1/6 266/1/6 267/1/6
f 267/1/6 266/1/6 268/1/6
