# MagicaVoxel @ Ephtracy

# group
o 

# material
mtllib building 3.mtl
usemtl palette

# normals
vn -1 0 0
vn 1 0 0
vn 0 0 1
vn 0 0 -1
vn 0 -1 0
vn 0 1 0

# texcoords
vt 0.00976563 0.5
vt 0.0136719 0.5
vt 0.0332031 0.5
vt 0.0800781 0.5
vt 0.212891 0.5
vt 0.279297 0.5
vt 0.283203 0.5

# verts
v -1.8 2.1 1.9
v -1.8 2.1 -1.9
v -1.8 2.2 1.9
v -1.8 2.2 -1.9
v -1.8 2.3 1.9
v -1.8 2.3 -1.9
v -1.7 0 1.7
v -1.7 0 -1.7
v -1.7 2 1.7
v -1.7 2 -1.7
v -1.7 2.1 1.7
v -1.7 2.1 -1.7
v -1.6 0 1.8
v -1.6 0 1.7
v -1.6 0 -1.7
v -1.6 0 -1.8
v -1.6 2 1.8
v -1.6 2 1.7
v -1.6 2 -1.7
v -1.6 2 -1.8
v -1.6 2.1 1.8
v -1.6 2.1 1.7
v -1.6 2.1 -1.7
v -1.6 2.1 -1.8
v 1 0 1.8
v 1 0 1.7
v 1 0 -1.7
v 1 0 -1.8
v 1 2 1.8
v 1 2 1.7
v 1 2 -1.7
v 1 2 -1.8
v 1 2.1 1.8
v 1 2.1 1.7
v 1 2.1 -1.7
v 1 2.1 -1.8
v 1.1 0 1.7
v 1.1 0 0.8
v 1.1 0 -0.6
v 1.1 0 -1.7
v 1.1 0.1 0.8
v 1.1 0.1 0.7
v 1.1 0.1 -0.5
v 1.1 0.1 -0.6
v 1.1 0.2 0.7
v 1.1 0.2 0.6
v 1.1 0.2 -0.4
v 1.1 0.2 -0.5
v 1.1 0.3 0.6
v 1.1 0.3 -0.4
v 1.1 0.6 1.6
v 1.1 0.6 0.9
v 1.1 0.6 -0.8
v 1.1 0.6 -1.5
v 1.1 0.7 1.6
v 1.1 0.7 0.9
v 1.1 0.7 -0.8
v 1.1 0.7 -1.5
v 1.1 0.8 1.5
v 1.1 0.8 1.3
v 1.1 0.8 1.2
v 1.1 0.8 1
v 1.1 0.8 -0.9
v 1.1 0.8 -1.1
v 1.1 0.8 -1.2
v 1.1 0.8 -1.4
v 1.1 0.9 0.3
v 1.1 0.9 0.2
v 1.1 0.9 0
v 1.1 0.9 -0.1
v 1.1 1 0.2
v 1.1 1 0
v 1.1 1.2 1.5
v 1.1 1.2 1.3
v 1.1 1.2 1.2
v 1.1 1.2 1
v 1.1 1.2 0.2
v 1.1 1.2 0
v 1.1 1.2 -0.9
v 1.1 1.2 -1.1
v 1.1 1.2 -1.2
v 1.1 1.2 -1.4
v 1.1 1.3 1.5
v 1.1 1.3 1.3
v 1.1 1.3 1.2
v 1.1 1.3 1
v 1.1 1.3 -0.9
v 1.1 1.3 -1.1
v 1.1 1.3 -1.2
v 1.1 1.3 -1.4
v 1.1 1.4 0.2
v 1.1 1.4 0
v 1.1 1.6 0.2
v 1.1 1.6 0
v 1.1 1.7 1.5
v 1.1 1.7 1.3
v 1.1 1.7 1.2
v 1.1 1.7 1
v 1.1 1.7 0.6
v 1.1 1.7 0.3
v 1.1 1.7 0.2
v 1.1 1.7 0
v 1.1 1.7 -0.1
v 1.1 1.7 -0.4
v 1.1 1.7 -0.9
v 1.1 1.7 -1.1
v 1.1 1.7 -1.2
v 1.1 1.7 -1.4
v 1.1 1.8 1.6
v 1.1 1.8 0.9
v 1.1 1.8 -0.8
v 1.1 1.8 -1.5
v 1.1 2 1.7
v 1.1 2 -1.7
v 1.1 2.1 1.9
v 1.1 2.1 1.7
v 1.1 2.1 -1.7
v 1.1 2.1 -1.9
v 1.1 2.2 1.9
v 1.1 2.2 -1.9
v 1.1 2.3 1.9
v 1.1 2.3 -1.9
v 1.4 0.2 0.6
v 1.4 0.2 -0.4
v 1.4 0.3 0.6
v 1.4 0.3 -0.4
v 1.5 0.1 0.7
v 1.5 0.1 -0.5
v 1.5 0.2 0.7
v 1.5 0.2 -0.5
v 1.6 0 0.8
v 1.6 0 -0.6
v 1.6 0.1 0.8
v 1.6 0.1 -0.6
v -1.8 2.1 1.9
v -1.8 2.2 1.9
v -1.8 2.3 1.9
v 1.1 2.1 1.9
v 1.1 2.2 1.9
v 1.1 2.3 1.9
v -1.6 0 1.8
v -1.6 2 1.8
v -1.6 2.1 1.8
v -1.2 0.4 1.8
v -1.2 0.5 1.8
v -1.2 1.6 1.8
v -1.1 0.6 1.8
v -1.1 1 1.8
v -1.1 1.1 1.8
v -1.1 1.5 1.8
v -0.5 0.6 1.8
v -0.5 1 1.8
v -0.5 1.1 1.8
v -0.5 1.5 1.8
v -0.4 0.6 1.8
v -0.4 1 1.8
v -0.4 1.1 1.8
v -0.4 1.5 1.8
v 0.2 0.6 1.8
v 0.2 1 1.8
v 0.2 1.1 1.8
v 0.2 1.5 1.8
v 0.3 0.4 1.8
v 0.3 0.5 1.8
v 0.3 1.6 1.8
v 1 0 1.8
v 1 2 1.8
v 1 2.1 1.8
v -1.7 0 1.7
v -1.7 2 1.7
v -1.7 2.1 1.7
v -1.6 0 1.7
v -1.6 2 1.7
v -1.6 2.1 1.7
v 1 0 1.7
v 1 2 1.7
v 1 2.1 1.7
v 1.1 0 1.7
v 1.1 2 1.7
v 1.1 2.1 1.7
v 1.1 0 0.8
v 1.1 0.1 0.8
v 1.6 0 0.8
v 1.6 0.1 0.8
v 1.1 0.1 0.7
v 1.1 0.2 0.7
v 1.5 0.1 0.7
v 1.5 0.2 0.7
v 1.1 0.2 0.6
v 1.1 0.3 0.6
v 1.4 0.2 0.6
v 1.4 0.3 0.6
v 1.1 0.2 -0.4
v 1.1 0.3 -0.4
v 1.4 0.2 -0.4
v 1.4 0.3 -0.4
v 1.1 0.1 -0.5
v 1.1 0.2 -0.5
v 1.5 0.1 -0.5
v 1.5 0.2 -0.5
v 1.1 0 -0.6
v 1.1 0.1 -0.6
v 1.6 0 -0.6
v 1.6 0.1 -0.6
v -1.7 0 -1.7
v -1.7 2 -1.7
v -1.7 2.1 -1.7
v -1.6 0 -1.7
v -1.6 2 -1.7
v -1.6 2.1 -1.7
v 1 0 -1.7
v 1 2 -1.7
v 1 2.1 -1.7
v 1.1 0 -1.7
v 1.1 2 -1.7
v 1.1 2.1 -1.7
v -1.6 0 -1.8
v -1.6 2 -1.8
v -1.6 2.1 -1.8
v -1.2 0.4 -1.8
v -1.2 0.5 -1.8
v -1.2 1.6 -1.8
v -1.1 0.6 -1.8
v -1.1 1 -1.8
v -1.1 1.1 -1.8
v -1.1 1.5 -1.8
v -0.5 0.6 -1.8
v -0.5 1 -1.8
v -0.5 1.1 -1.8
v -0.5 1.5 -1.8
v -0.4 0.6 -1.8
v -0.4 1 -1.8
v -0.4 1.1 -1.8
v -0.4 1.5 -1.8
v 0.2 0.6 -1.8
v 0.2 1 -1.8
v 0.2 1.1 -1.8
v 0.2 1.5 -1.8
v 0.3 0.4 -1.8
v 0.3 0.5 -1.8
v 0.3 1.6 -1.8
v 1 0 -1.8
v 1 2 -1.8
v 1 2.1 -1.8
v -1.8 2.1 -1.9
v -1.8 2.2 -1.9
v -1.8 2.3 -1.9
v 1.1 2.1 -1.9
v 1.1 2.2 -1.9
v 1.1 2.3 -1.9
v -1.6 0 1.8
v 1 0 1.8
v -1.7 0 1.7
v -1.6 0 1.7
v 1 0 1.7
v 1.1 0 1.7
v 1.1 0 0.8
v 1.6 0 0.8
v 1 0 0.7
v 1.1 0 0.7
v 1.5 0 0.7
v 1 0 -0.5
v 1.1 0 -0.5
v 1.5 0 -0.5
v 1.1 0 -0.6
v 1.6 0 -0.6
v -1.7 0 -1.7
v -1.6 0 -1.7
v 1 0 -1.7
v 1.1 0 -1.7
v -1.6 0 -1.8
v 1 0 -1.8
v -1.8 2.1 1.9
v 1.1 2.1 1.9
v -1.6 2.1 1.8
v 1 2.1 1.8
v -1.7 2.1 1.7
v -1.6 2.1 1.7
v 1 2.1 1.7
v 1.1 2.1 1.7
v -1.7 2.1 -1.7
v -1.6 2.1 -1.7
v 1 2.1 -1.7
v 1.1 2.1 -1.7
v -1.6 2.1 -1.8
v 1 2.1 -1.8
v -1.8 2.1 -1.9
v 1.1 2.1 -1.9
v 1.1 0.1 0.8
v 1.6 0.1 0.8
v 1.1 0.1 0.7
v 1.5 0.1 0.7
v 1.1 0.1 -0.5
v 1.5 0.1 -0.5
v 1.1 0.1 -0.6
v 1.6 0.1 -0.6
v 1.1 0.2 0.7
v 1.5 0.2 0.7
v 1.1 0.2 0.6
v 1.4 0.2 0.6
v 1.1 0.2 -0.4
v 1.4 0.2 -0.4
v 1.1 0.2 -0.5
v 1.5 0.2 -0.5
v 1.1 0.3 0.6
v 1.4 0.3 0.6
v 1.1 0.3 -0.4
v 1.4 0.3 -0.4
v -1.8 2.3 1.9
v 1.1 2.3 1.9
v -1.8 2.3 -1.9
v 1.1 2.3 -1.9

# faces
f 3/4/1 2/4/1 1/4/1
f 4/4/1 2/4/1 3/4/1
f 5/1/1 4/1/1 3/1/1
f 6/1/1 4/1/1 5/1/1
f 9/4/1 8/4/1 7/4/1
f 10/4/1 8/4/1 9/4/1
f 11/1/1 10/1/1 9/1/1
f 12/1/1 10/1/1 11/1/1
f 17/4/1 14/4/1 13/4/1
f 18/4/1 14/4/1 17/4/1
f 19/4/1 16/4/1 15/4/1
f 20/4/1 16/4/1 19/4/1
f 21/1/1 18/1/1 17/1/1
f 22/1/1 18/1/1 21/1/1
f 23/1/1 20/1/1 19/1/1
f 24/1/1 20/1/1 23/1/1
f 25/4/2 26/4/2 29/4/2
f 29/4/2 26/4/2 30/4/2
f 27/4/2 28/4/2 31/4/2
f 31/4/2 28/4/2 32/4/2
f 29/1/2 30/1/2 33/1/2
f 33/1/2 30/1/2 34/1/2
f 31/1/2 32/1/2 35/1/2
f 35/1/2 32/1/2 36/1/2
f 37/4/2 38/4/2 41/4/2
f 39/4/2 40/4/2 44/4/2
f 41/4/2 42/4/2 45/4/2
f 43/4/2 44/4/2 48/4/2
f 45/4/2 46/4/2 49/4/2
f 47/4/2 48/4/2 50/4/2
f 45/4/2 49/4/2 51/4/2
f 37/4/2 41/4/2 51/4/2
f 41/4/2 45/4/2 51/4/2
f 51/4/2 49/4/2 52/4/2
f 50/4/2 48/4/2 53/4/2
f 44/4/2 40/4/2 53/4/2
f 48/4/2 44/4/2 53/4/2
f 53/4/2 40/4/2 54/4/2
f 51/3/2 52/3/2 55/3/2
f 37/4/2 51/4/2 55/4/2
f 52/4/2 49/4/2 56/4/2
f 55/3/2 52/3/2 56/3/2
f 53/3/2 54/3/2 57/3/2
f 50/4/2 53/4/2 57/4/2
f 54/4/2 40/4/2 58/4/2
f 57/3/2 54/3/2 58/3/2
f 55/7/2 56/7/2 59/7/2
f 59/7/2 56/7/2 60/7/2
f 60/7/2 56/7/2 61/7/2
f 61/7/2 56/7/2 62/7/2
f 57/7/2 58/7/2 63/7/2
f 63/7/2 58/7/2 64/7/2
f 64/7/2 58/7/2 65/7/2
f 65/7/2 58/7/2 66/7/2
f 49/7/2 50/7/2 67/7/2
f 67/7/2 50/7/2 68/7/2
f 68/7/2 50/7/2 69/7/2
f 69/7/2 50/7/2 70/7/2
f 67/2/2 68/2/2 71/2/2
f 68/7/2 69/7/2 71/7/2
f 69/2/2 70/2/2 72/2/2
f 71/7/2 69/7/2 72/7/2
f 55/7/2 59/7/2 73/7/2
f 59/6/2 60/6/2 73/6/2
f 60/3/2 61/3/2 74/3/2
f 73/6/2 60/6/2 74/6/2
f 61/6/2 62/6/2 75/6/2
f 74/3/2 61/3/2 75/3/2
f 62/7/2 56/7/2 76/7/2
f 75/6/2 62/6/2 76/6/2
f 71/6/2 72/6/2 77/6/2
f 67/2/2 71/2/2 77/2/2
f 72/2/2 70/2/2 78/2/2
f 77/6/2 72/6/2 78/6/2
f 57/7/2 63/7/2 79/7/2
f 63/6/2 64/6/2 79/6/2
f 64/2/2 65/2/2 80/2/2
f 79/6/2 64/6/2 80/6/2
f 65/6/2 66/6/2 81/6/2
f 80/2/2 65/2/2 81/2/2
f 66/7/2 58/7/2 82/7/2
f 81/6/2 66/6/2 82/6/2
f 74/3/2 75/3/2 83/3/2
f 55/7/2 73/7/2 83/7/2
f 73/3/2 74/3/2 83/3/2
f 75/3/2 76/3/2 83/3/2
f 83/3/2 76/3/2 84/3/2
f 84/3/2 76/3/2 85/3/2
f 76/7/2 56/7/2 86/7/2
f 85/3/2 76/3/2 86/3/2
f 80/2/2 81/2/2 87/2/2
f 81/2/2 82/2/2 87/2/2
f 57/7/2 79/7/2 87/7/2
f 79/2/2 80/2/2 87/2/2
f 87/2/2 82/2/2 88/2/2
f 88/2/2 82/2/2 89/2/2
f 82/7/2 58/7/2 90/7/2
f 89/2/2 82/2/2 90/2/2
f 67/2/2 77/2/2 91/2/2
f 77/2/2 78/2/2 91/2/2
f 78/2/2 70/2/2 92/2/2
f 91/2/2 78/2/2 92/2/2
f 67/2/2 91/2/2 93/2/2
f 91/6/2 92/6/2 93/6/2
f 92/2/2 70/2/2 94/2/2
f 93/6/2 92/6/2 94/6/2
f 83/6/2 84/6/2 95/6/2
f 55/7/2 83/7/2 95/7/2
f 84/3/2 85/3/2 96/3/2
f 95/6/2 84/6/2 96/6/2
f 85/6/2 86/6/2 97/6/2
f 96/3/2 85/3/2 97/3/2
f 86/7/2 56/7/2 98/7/2
f 97/6/2 86/6/2 98/6/2
f 56/4/2 49/4/2 99/4/2
f 49/7/2 67/7/2 99/7/2
f 67/2/2 93/2/2 100/2/2
f 99/7/2 67/7/2 100/7/2
f 93/7/2 94/7/2 101/7/2
f 100/2/2 93/2/2 101/2/2
f 94/2/2 70/2/2 102/2/2
f 101/7/2 94/7/2 102/7/2
f 70/7/2 50/7/2 103/7/2
f 102/2/2 70/2/2 103/2/2
f 50/4/2 57/4/2 104/4/2
f 103/7/2 50/7/2 104/7/2
f 57/7/2 87/7/2 105/7/2
f 87/6/2 88/6/2 105/6/2
f 88/2/2 89/2/2 106/2/2
f 105/6/2 88/6/2 106/6/2
f 89/6/2 90/6/2 107/6/2
f 106/2/2 89/2/2 107/2/2
f 90/7/2 58/7/2 108/7/2
f 107/6/2 90/6/2 108/6/2
f 96/7/2 97/7/2 109/7/2
f 37/4/2 55/4/2 109/4/2
f 55/7/2 95/7/2 109/7/2
f 95/7/2 96/7/2 109/7/2
f 97/7/2 98/7/2 109/7/2
f 102/4/2 103/4/2 110/4/2
f 109/7/2 98/7/2 110/7/2
f 98/7/2 56/7/2 110/7/2
f 99/4/2 100/4/2 110/4/2
f 100/4/2 101/4/2 110/4/2
f 103/4/2 104/4/2 110/4/2
f 56/4/2 99/4/2 110/4/2
f 101/4/2 102/4/2 110/4/2
f 107/7/2 108/7/2 111/7/2
f 110/4/2 104/4/2 111/4/2
f 105/7/2 106/7/2 111/7/2
f 104/4/2 57/4/2 111/4/2
f 106/7/2 107/7/2 111/7/2
f 57/7/2 105/7/2 111/7/2
f 108/7/2 58/7/2 112/7/2
f 111/7/2 108/7/2 112/7/2
f 58/4/2 40/4/2 112/4/2
f 110/4/2 111/4/2 113/4/2
f 109/4/2 110/4/2 113/4/2
f 111/4/2 112/4/2 113/4/2
f 37/4/2 109/4/2 113/4/2
f 112/4/2 40/4/2 114/4/2
f 113/4/2 112/4/2 114/4/2
f 113/1/2 114/1/2 116/1/2
f 116/1/2 114/1/2 117/1/2
f 116/4/2 117/4/2 119/4/2
f 117/4/2 118/4/2 119/4/2
f 115/4/2 116/4/2 119/4/2
f 119/4/2 118/4/2 120/4/2
f 119/1/2 120/1/2 121/1/2
f 121/1/2 120/1/2 122/1/2
f 123/1/2 124/1/2 125/1/2
f 125/1/2 124/1/2 126/1/2
f 127/1/2 128/1/2 129/1/2
f 129/1/2 128/1/2 130/1/2
f 131/1/2 132/1/2 133/1/2
f 133/1/2 132/1/2 134/1/2
f 138/4/3 136/4/3 135/4/3
f 139/1/3 137/1/3 136/1/3
f 139/4/3 136/4/3 138/4/3
f 140/1/3 137/1/3 139/1/3
f 144/4/3 142/4/3 141/4/3
f 145/4/3 142/4/3 144/4/3
f 146/4/3 142/4/3 145/4/3
f 147/7/3 146/7/3 145/7/3
f 148/7/3 146/7/3 147/7/3
f 149/7/3 146/7/3 148/7/3
f 150/7/3 146/7/3 149/7/3
f 151/7/3 147/7/3 145/7/3
f 151/5/3 148/5/3 147/5/3
f 152/2/3 149/2/3 148/2/3
f 152/5/3 148/5/3 151/5/3
f 153/5/3 150/5/3 149/5/3
f 153/2/3 149/2/3 152/2/3
f 154/7/3 146/7/3 150/7/3
f 154/5/3 150/5/3 153/5/3
f 155/2/3 153/2/3 152/2/3
f 155/2/3 152/2/3 151/2/3
f 155/2/3 154/2/3 153/2/3
f 155/7/3 151/7/3 145/7/3
f 156/2/3 154/2/3 155/2/3
f 157/2/3 154/2/3 156/2/3
f 158/7/3 146/7/3 154/7/3
f 158/2/3 154/2/3 157/2/3
f 159/7/3 155/7/3 145/7/3
f 159/5/3 156/5/3 155/5/3
f 160/2/3 157/2/3 156/2/3
f 160/5/3 156/5/3 159/5/3
f 161/5/3 158/5/3 157/5/3
f 161/2/3 157/2/3 160/2/3
f 162/7/3 146/7/3 158/7/3
f 162/5/3 158/5/3 161/5/3
f 163/4/3 144/4/3 141/4/3
f 163/2/3 145/2/3 144/2/3
f 164/7/3 162/7/3 161/7/3
f 164/2/3 145/2/3 163/2/3
f 164/7/3 159/7/3 145/7/3
f 164/7/3 160/7/3 159/7/3
f 164/7/3 161/7/3 160/7/3
f 165/7/3 146/7/3 162/7/3
f 165/7/3 162/7/3 164/7/3
f 165/4/3 142/4/3 146/4/3
f 166/4/3 164/4/3 163/4/3
f 166/4/3 163/4/3 141/4/3
f 166/4/3 165/4/3 164/4/3
f 167/1/3 143/1/3 142/1/3
f 167/4/3 165/4/3 166/4/3
f 167/4/3 142/4/3 165/4/3
f 168/1/3 143/1/3 167/1/3
f 172/4/3 170/4/3 169/4/3
f 173/1/3 171/1/3 170/1/3
f 173/4/3 170/4/3 172/4/3
f 174/1/3 171/1/3 173/1/3
f 178/4/3 176/4/3 175/4/3
f 179/1/3 177/1/3 176/1/3
f 179/4/3 176/4/3 178/4/3
f 180/1/3 177/1/3 179/1/3
f 183/1/3 182/1/3 181/1/3
f 184/1/3 182/1/3 183/1/3
f 187/1/3 186/1/3 185/1/3
f 188/1/3 186/1/3 187/1/3
f 191/1/3 190/1/3 189/1/3
f 192/1/3 190/1/3 191/1/3
f 193/1/4 194/1/4 195/1/4
f 195/1/4 194/1/4 196/1/4
f 197/1/4 198/1/4 199/1/4
f 199/1/4 198/1/4 200/1/4
f 201/1/4 202/1/4 203/1/4
f 203/1/4 202/1/4 204/1/4
f 205/4/4 206/4/4 208/4/4
f 206/1/4 207/1/4 209/1/4
f 208/4/4 206/4/4 209/4/4
f 209/1/4 207/1/4 210/1/4
f 211/4/4 212/4/4 214/4/4
f 212/1/4 213/1/4 215/1/4
f 214/4/4 212/4/4 215/4/4
f 215/1/4 213/1/4 216/1/4
f 217/4/4 218/4/4 220/4/4
f 220/4/4 218/4/4 221/4/4
f 221/4/4 218/4/4 222/4/4
f 221/7/4 222/7/4 223/7/4
f 223/7/4 222/7/4 224/7/4
f 224/7/4 222/7/4 225/7/4
f 225/7/4 222/7/4 226/7/4
f 221/7/4 223/7/4 227/7/4
f 223/5/4 224/5/4 227/5/4
f 224/2/4 225/2/4 228/2/4
f 227/5/4 224/5/4 228/5/4
f 225/5/4 226/5/4 229/5/4
f 228/2/4 225/2/4 229/2/4
f 226/7/4 222/7/4 230/7/4
f 229/5/4 226/5/4 230/5/4
f 228/2/4 229/2/4 231/2/4
f 227/2/4 228/2/4 231/2/4
f 229/2/4 230/2/4 231/2/4
f 221/7/4 227/7/4 231/7/4
f 231/2/4 230/2/4 232/2/4
f 232/2/4 230/2/4 233/2/4
f 230/7/4 222/7/4 234/7/4
f 233/2/4 230/2/4 234/2/4
f 221/7/4 231/7/4 235/7/4
f 231/5/4 232/5/4 235/5/4
f 232/2/4 233/2/4 236/2/4
f 235/5/4 232/5/4 236/5/4
f 233/5/4 234/5/4 237/5/4
f 236/2/4 233/2/4 237/2/4
f 234/7/4 222/7/4 238/7/4
f 237/5/4 234/5/4 238/5/4
f 217/4/4 220/4/4 239/4/4
f 220/2/4 221/2/4 239/2/4
f 237/7/4 238/7/4 240/7/4
f 239/2/4 221/2/4 240/2/4
f 221/7/4 235/7/4 240/7/4
f 235/7/4 236/7/4 240/7/4
f 236/7/4 237/7/4 240/7/4
f 238/7/4 222/7/4 241/7/4
f 240/7/4 238/7/4 241/7/4
f 222/4/4 218/4/4 241/4/4
f 239/4/4 240/4/4 242/4/4
f 217/4/4 239/4/4 242/4/4
f 240/4/4 241/4/4 242/4/4
f 218/1/4 219/1/4 243/1/4
f 242/4/4 241/4/4 243/4/4
f 241/4/4 218/4/4 243/4/4
f 243/1/4 219/1/4 244/1/4
f 245/4/4 246/4/4 248/4/4
f 246/1/4 247/1/4 249/1/4
f 248/4/4 246/4/4 249/4/4
f 249/1/4 247/1/4 250/1/4
f 254/4/5 252/4/5 251/4/5
f 255/4/5 252/4/5 254/4/5
f 257/4/5 256/4/5 255/4/5
f 259/5/5 255/5/5 254/5/5
f 259/4/5 257/4/5 255/4/5
f 260/1/5 258/1/5 257/1/5
f 260/4/5 257/4/5 259/4/5
f 261/1/5 258/1/5 260/1/5
f 262/5/5 259/5/5 254/5/5
f 262/5/5 260/5/5 259/5/5
f 262/5/5 261/5/5 260/5/5
f 263/5/5 261/5/5 262/5/5
f 264/1/5 258/1/5 261/1/5
f 264/5/5 261/5/5 263/5/5
f 265/4/5 263/4/5 262/4/5
f 265/1/5 264/1/5 263/1/5
f 266/1/5 258/1/5 264/1/5
f 266/1/5 264/1/5 265/1/5
f 267/4/5 254/4/5 253/4/5
f 268/5/5 262/5/5 254/5/5
f 268/4/5 254/4/5 267/4/5
f 269/4/5 265/4/5 262/4/5
f 269/5/5 262/5/5 268/5/5
f 270/4/5 265/4/5 269/4/5
f 271/4/5 269/4/5 268/4/5
f 272/4/5 269/4/5 271/4/5
f 275/4/5 274/4/5 273/4/5
f 276/4/5 274/4/5 275/4/5
f 277/4/5 275/4/5 273/4/5
f 278/4/5 275/4/5 277/4/5
f 279/4/5 274/4/5 276/4/5
f 280/4/5 274/4/5 279/4/5
f 281/4/5 277/4/5 273/4/5
f 285/4/5 282/4/5 281/4/5
f 286/4/5 284/4/5 283/4/5
f 287/4/5 281/4/5 273/4/5
f 287/4/5 286/4/5 285/4/5
f 287/4/5 285/4/5 281/4/5
f 288/4/5 284/4/5 286/4/5
f 288/4/5 286/4/5 287/4/5
f 289/1/6 290/1/6 291/1/6
f 291/1/6 290/1/6 292/1/6
f 292/1/6 290/1/6 294/1/6
f 293/1/6 294/1/6 295/1/6
f 294/1/6 290/1/6 296/1/6
f 295/1/6 294/1/6 296/1/6
f 297/1/6 298/1/6 299/1/6
f 299/1/6 298/1/6 300/1/6
f 300/1/6 298/1/6 302/1/6
f 301/1/6 302/1/6 303/1/6
f 302/1/6 298/1/6 304/1/6
f 303/1/6 302/1/6 304/1/6
f 305/1/6 306/1/6 307/1/6
f 307/1/6 306/1/6 308/1/6
f 309/1/6 310/1/6 311/1/6
f 311/1/6 310/1/6 312/1/6
